<svg width="31" height="31" viewBox="0 0 31 31" fill="none" xmlns="http://www.w3.org/2000/svg">
<ellipse cx="15.5" cy="15.5" rx="15.5" ry="15.5" fill="#5A68B3"/>
<path d="M10.116 19H11.568V13.816H12.996V12.724H11.568V11.824C11.568 11.284 11.808 10.9 12.384 10.9C12.648 10.9 12.828 10.924 12.996 10.996V9.868C12.768 9.796 12.564 9.76 12.204 9.76C10.872 9.76 10.116 10.504 10.116 11.884V12.724H9.264V13.816H10.116V19ZM17.5516 19.12C19.1716 19.12 20.3356 17.896 20.3356 15.88V15.784C20.3356 13.756 19.1236 12.592 17.5516 12.592C16.6276 12.592 15.8476 13.132 15.4996 13.732V9.82H14.0476V19H15.4996V17.992C15.8356 18.628 16.5556 19.12 17.5516 19.12ZM17.1916 17.968C16.1356 17.968 15.4516 17.308 15.4516 15.904V15.808C15.4516 14.416 16.1716 13.732 17.1796 13.732C18.1276 13.732 18.8476 14.416 18.8476 15.808V15.904C18.8476 17.248 18.2596 17.968 17.1916 17.968Z" fill="white"/>
</svg>
