<svg width="31" height="31" viewBox="0 0 31 31" fill="none" xmlns="http://www.w3.org/2000/svg">
<ellipse cx="15.5" cy="15.5" rx="15.5" ry="15.5" fill="url(#paint0_linear)"/>
<path d="M11.608 11.692C12.088 11.692 12.472 11.332 12.472 10.864C12.472 10.384 12.088 10.024 11.608 10.024C11.128 10.024 10.744 10.384 10.744 10.864C10.744 11.332 11.128 11.692 11.608 11.692ZM10.9 19H12.352V12.724H10.9V19ZM14.1218 19H15.5738V15.304C15.5738 14.308 16.2338 13.804 17.0498 13.804C17.9138 13.804 18.2978 14.236 18.2978 15.184V19H19.7498V15.052C19.7498 13.324 18.8618 12.592 17.6018 12.592C16.5698 12.592 15.8738 13.108 15.5738 13.72V12.724H14.1218V19Z" fill="white"/>
<defs>
<linearGradient id="paint0_linear" x1="15.5" y1="0" x2="15.5" y2="31" gradientUnits="userSpaceOnUse">
<stop stop-color="#EBD937"/>
<stop offset="1" stop-color="#EB37C3"/>
</linearGradient>
</defs>
</svg>
