<svg width="24" height="22" viewBox="0 0 24 22" fill="none" xmlns="http://www.w3.org/2000/svg">
<path d="M20.1999 3.6L21.5999 2.2C21.9999 1.8 21.9999 1.2 21.5999 0.8C21.1999 0.4 20.5999 0.4 20.1999 0.8L10.1999 10.8C9.1999 10.1 7.9999 9.7 6.6999 9.7C5.0999 9.7 3.5999 10.3 2.4999 11.5C0.199902 13.8 0.199902 17.6 2.4999 20C3.5999 21.1 5.0999 21.8 6.6999 21.8C8.2999 21.8 9.7999 21.2 10.8999 20C12.9999 17.9 13.1999 14.6 11.4999 12.3L15.0999 8.7L17.8999 11.5C18.0999 11.7 18.3999 11.8 18.5999 11.8C18.7999 11.8 19.0999 11.7 19.2999 11.5L22.9999 7.8C23.1999 7.6 23.2999 7.4 23.2999 7.1C23.2999 6.8 23.1999 6.6 22.9999 6.4L20.1999 3.6ZM9.5999 18.4C8.7999 19.2 7.7999 19.6 6.7999 19.6C5.7999 19.6 4.6999 19.2 3.9999 18.4C2.3999 16.8 2.3999 14.3 3.9999 12.7C4.7999 11.9 5.7999 11.5 6.7999 11.5C7.7999 11.5 8.8999 11.9 9.5999 12.7C11.0999 14.3 11.0999 16.8 9.5999 18.4ZM18.6999 9.2L16.5999 7.1L18.6999 5L20.7999 7.1L18.6999 9.2Z" fill="white"/>
</svg>
