<svg id="Слой_1" data-name="Слой 1" xmlns="http://www.w3.org/2000/svg" viewBox="0 0 165.4 85.16"><title>logo_white</title><path d="M49.65,68.12c.38.72-.08,1.18,0,2.08,1.9,1,3.16-2.4,4.88-2.08.85.16,1.39,1.1,1.27,2.83,1.64.4,2-1.2,3.09-.75.17,1.19-.93,1-.91,2.07.88.43,1.7-.35,2.35-.75a20.31,20.31,0,0,0,2-1.32c1-.78,1.76-2.42,3.26-1.89,0,1.53-1.09,1.89-1.45,3,.8.35,1.19-.51,1.63-.75.14-.08.4.07.54,0s.55-.52.91-.76c.82-.55,1.61-1.52,3.08-1.32-.12.88-.78,1.2-1.45,1.51,0,1-1,1-.91,2.07,1.48.41,2.5-1.29,3.81-1.69a2.25,2.25,0,0,1,1.81-1.7c.83-.11.85.63,1.27.94.37-.31.7-1.65,1.27-1.13.63,0,.4.87.36,1.13-.12.82-1.14,1.92-.91,3.21,1.67,1.12,3.29-.77,4.53-1.32.1-.66.49-1,.55-1.7.91-.5,1-1.89,2.35-1.89a1.35,1.35,0,0,1,.36,1.32c-.07.48-.53.62-.72,1a10.46,10.46,0,0,0-1.27,2.07c1.27.07,1.62-.83,2.36-1.32-.37-.59.41-.83.54-1.13s.27-1.38,1.09-1.32c1,1.36-.59,2.64-.91,3.77.81.51,1.65-.35,2.36-.56.23-1.36.86-3.22,2.17-2.83.45.84-.64,1.24-.91,2.07-.16.52,0,1.07-.18,1.7a1.29,1.29,0,0,0,1.27-.38c.23-.22,1.14-.47,1.63-.75.8-.46,1.48-1.11,2.35-1.51.29-1.16,0-2.91,1.64-2.65a4,4,0,0,1,0,2.46c2.3.57,1.72-1.85,3.44-1.89a2,2,0,0,1-.72,2.46c.1.86-.33,1.17-.18,2.07,1.51-.18,2.09-1.34,3.07-2.07,0-1.62.79-2.33,1.27-3.4a4,4,0,0,1,2.54,0c.52,1.6.56,1.94-.36,2.83-.5.47-1,.8-1.63,1.32-.33.29-.52.27-.55.76-.07,1.41,1.63,1.71,2.9,1.51,1.68-.27,2.34-2.43,4-2.46.69,1-.89,1-.73,2.08.91.42,1.71-.36,2.36-.76a20.31,20.31,0,0,0,2-1.32c.94-.74,1.66-2.08,3.08-2.07.61,1.43-1,2-1.27,3.2.42.34,1.13-.22,1.45-.56a13.31,13.31,0,0,0,2.36-1.32c.67-.43,1.23-1.46,2.36-.76-.21.74-.88,1-1.46,1.33-.11.88-.93,1-.9,2.07,1.36.47,2.17-1.26,3.44-1.51a8.2,8.2,0,0,1,1.09-1.7c.36-.43.75-1.25,1.27-.94.79.13.27,1,.18,1.32-.14.51-.61.93-.55,1.32.68.56,1.6-.22,2-.56.12-.69,0-1.68.72-1.71,1.09,0,.21,2.06.72,2.65.76-.1,1.06-.66,1.82-.76.38,1.1-.55,1-.91,1.32s-.62.94-1.26.76a16.08,16.08,0,0,1-.55,2.83,14.57,14.57,0,0,1-1.45,3.4c-.4.72-.77,1.35-1.27,2.08A10.66,10.66,0,0,1,120.48,84c-.7.55-1.33,1.33-2.35,1.13a4.93,4.93,0,0,1-1.45-3.21c0-1.48,1.24-2.31,1.63-3.4.47-.07.55-.56,1.09-.56.52-1.1,1.68-1.59,2.54-2.27.2-.16.33-.61.54-.75s.41.07.54,0c.36-.18.85-1.3,1.64-1.32-.1-.6.32-.67.17-1.33-.25-.31-1,.45-1.81.19-.59,0-.38-.73-.9-.75-1.6.85-2.48,2.46-4.9,2.45-.42-.44-1.11-.6-.9-1.7a10.29,10.29,0,0,0-1.81,1c-.52.34-.81.92-1.82.75-.51-.34-.26-1.48-.54-2.08-1.59.55-2.81,2.06-4.35,2.08a1.39,1.39,0,0,1-.9-1.13,15.61,15.61,0,0,0-2.18,1.32,8,8,0,0,1-3.26-.38c-.52-.46-.62-1.36-1.27-1.7-1.32-.24-2,1.6-3.26,1.14-.89-.32-1-1.43-.72-2.83-1.21,0-1.59.85-2.18,1.5,0,1.17-.21,2-1.09,2.27-.36-.62-.09-1.91-.17-2.83-1.85.45-4.56,3.47-6.35,1.32-.71.49-2.63.64-3.08-.19a8.09,8.09,0,0,1-2.17,1c-.89.17-.69-.8-1.45-.76-.56,0-.7.53-1.09.76-1.35,0-2.2,1-3.62.37A10.8,10.8,0,0,1,74.29,72c-.48-.23-1.07,1-1.45,1.51-1,0-1.08-.9-1.45-1.51-1.6.21-2.34,2.15-4.35,1.32-.25-.44-.73-.63-.55-1.51a18.27,18.27,0,0,0-1.81.94c-.52.29-1,1-2,.76a8.17,8.17,0,0,1-.36-2.08c-1.82.43-2.27,2.29-4.71,2.08A3.93,3.93,0,0,1,56.88,72c-2.07,0-3.16,1-5.07,1.13-.4-.4-.46-1.16-.73-1.7a5.57,5.57,0,0,0-2.35,1.89c-.3.38-.21.56-.55,1.32-.1.23-.27.32-.36.57-.51,1.39-.81,3-2.17,3.77.12.69-.4.73-.37,1.32-1.53,1-2.3,2.76-5.07,2.46-.53-.89-1.44-1.6-1.45-2.64,0-1.59,2-3.36,3.63-4.53C44.16,74.18,46,73,47.11,72.27c.21-1.17.73-2,.9-3.21a6.56,6.56,0,0,0-4.16,2.27c-1-.19-1.15.57-2.18.38a2.31,2.31,0,0,1-.36-2.46c0-.08.33-.12.36-.19s-.06-.29,0-.37A8.27,8.27,0,0,1,45.29,67c.41-.07,1,.21,1.27-.19.68.11.79.82,1.27,1.13.62.06,1.47-.14,1.82.19Zm-4.36,0h0c-.81.33-1.15.26-1.44.76s-1,.85-.55,1.32c.82-.41,1.51-1,2.36-1.51.32-.18,1.16,0,1.08-.76C46.19,67.46,45.64,67.93,45.29,68.12ZM102.19,70h0A2.35,2.35,0,0,0,104,68.3C103,67.15,102.28,69,102.19,70Zm-49.1-.19h0c.25,1.08-.42,1.2-.55,1.89A2,2,0,0,0,55,70.32a2.06,2.06,0,0,0,.07-.7c-.5-.71-1.42-.11-2,.19Zm19.75,1.51h0c.63,0,.57-.66.9-.94C73,70.26,72.94,70.8,72.84,71.32Zm-27.18,3h0c-.41.81-1.36,1-2,1.51s-1.26,1.37-1.81,1.89a2.47,2.47,0,0,0-.72.94c0,.07-.32.12-.36.19s0,.28,0,.38-.32.11-.37.19A3.12,3.12,0,0,0,40,81c2,1.32,3.51-1.35,4.17-2.46.07-.11.29-.25.36-.37.16-.28.19-.83.36-1.13s.61-.49.73-.76c.28-.65.17-1.39.54-1.89Zm77.54,1.32h0a4.29,4.29,0,0,1-1.81,1.51c-.38.42-.51,1.1-1.26,1.14.07.64-.8.73-1.28,1.32V80c0,.09-.31.12-.36.18a7,7,0,0,0-.9,1.89c0,.46,0,1.54.9,1.7.6.08.92-.62,1.09-.76s.4,0,.55-.18.33-.5.54-.76c.51-.64.83-.9.9-1.7.77,0,.63-.8.91-1.32.06-.1.28-.24.36-.38a13.3,13.3,0,0,0,1.09-3Z" transform="translate(-0.03 0)" style="fill:#fff"/><path d="M28.44,67.93c.52,1.47-.78,2.38-.54,4.15,3-.21,1.52-5.09,5.07-4.72a6.73,6.73,0,0,1,.55,1.52c.17.44.54.85.54,1.32a4.28,4.28,0,0,1-1.27,2.64,4.62,4.62,0,0,1-1.63.38,1.35,1.35,0,0,1-1.27-1.14c-.93.48-1.36,1.29-2.35,1-1.46-.5-.59-2.69-.36-4.15C24,67.75,25.63,73.3,23.55,74a10,10,0,0,1,0-4,10.85,10.85,0,0,1,.91-3h.36c.77-.24.49.63.91.75a8.52,8.52,0,0,1,2.71.19ZM31.53,70h0a2.19,2.19,0,0,0-.37,2.26A2,2,0,0,0,33,70.77c-.2-.55-.77-.71-1.44-.76Z" transform="translate(-0.03 0)" style="fill:#fff"/><path d="M131.36,72.65c.32,0,.38.23.72.19a1.25,1.25,0,0,1-.18.94c-.89.11-1.08-.73-.54-1.13Z" transform="translate(-0.03 0)" style="fill:#fff"/><path d="M135,72.65h.73v.76C135.1,73.56,134.86,73.3,135,72.65Z" transform="translate(-0.03 0)" style="fill:#fff"/><path d="M138.24,72.84c.38-.08.48.13.73.19.07.39-.13.5-.18.75C138.22,73.87,138.21,73.38,138.24,72.84Z" transform="translate(-0.03 0)" style="fill:#fff"/><path d="M87,75.29c0,1.55-1.43,1-2.71.95s-3.17.46-3.44-.38c.11-.63,1.58-1,2.35-1.13C84.38,74.5,86.2,74.46,87,75.29Z" transform="translate(-0.03 0)" style="fill:#fff"/><path d="M106.1,14.27a8.78,8.78,0,0,1,1.44-.14c1,0,1.85.34,2.74.38a12.55,12.55,0,0,0,1.94-.09c.3,0,.58-.21.9-.24s.6.11.91.09c.86-.06,1.4-.64,2.2-.92.37-.13.74-.08,1.09-.18a13,13,0,0,0,1.54-.77,3.84,3.84,0,0,0,2-1.29c.15-.23.21-.6.38-.9s.64-.78.81-1.11a6,6,0,0,0,.48-2.87,7,7,0,0,0-.17-2.46,4.35,4.35,0,0,0-1.53-1.89c-.25-.13-.69-.18-1-.33a9.42,9.42,0,0,0-1.16-.64c-.33-.09-1,0-1.52-.12a13.39,13.39,0,0,0-1.53-.44c-.47,0-.68.07-1,.05-1.25-.05-2.5-.37-3.72-.4a44.7,44.7,0,0,0-4.77.26V2c.94-.05,1.75,0,2.55-.06,2.21-.15,4.22-.41,5.38,1a21.27,21.27,0,0,1,1.46,2.9c.21.4.87.86.79,1.41-.13.84-1.79.89-3,1.09s-2.32.6-3.37.73a22.16,22.16,0,0,1-3.82.15v5ZM99.62,14h0v-.92a11.35,11.35,0,0,0,3.39.19,15.82,15.82,0,0,0-2.34-.72l-1-.56V8l.93.24a19.73,19.73,0,0,0,2.63.63,26.13,26.13,0,0,0,2.92.35v5a4.12,4.12,0,0,1-.86,0c-.36,0-.71-.21-1-.21s-.76.18-1.15.18-1.13-.12-1.7-.17-1.25,0-1.73-.1ZM106.1.26h0V2a7.11,7.11,0,0,0-1,.11c-.52.07-1.07.34-1.62.45a17.19,17.19,0,0,0-3.72,1l-.12.07V1.45A8.8,8.8,0,0,1,100.85,1a42.23,42.23,0,0,1,4.76-.66h.49ZM63.65,8.9h0c.77.3,1.45-.2,2.17-.29h.91c.81-.07,1.6-.45,2.4-.55a3.45,3.45,0,0,0,.85,0c.27-.07.63-.35,1-.43a8.28,8.28,0,0,1,1.22,0,23.61,23.61,0,0,0,2.66-.18c.92-.14,1.9-.66,2.76-.7.34,0,.76.2,1.16.2.24,0,.45-.11.66-.1s.57.18.86.22a8.33,8.33,0,0,0,1,0c1.1.16,2.71.36,4.14.44s2.85.28,4.08.37a4.77,4.77,0,0,1,1,0c.35.07.91.25,1.41.38a3.46,3.46,0,0,1,1.36.63,16.67,16.67,0,0,1,1.43,2.21,7.07,7.07,0,0,0,1.63,1.25A6.32,6.32,0,0,0,98,13.47a2.62,2.62,0,0,0,.74,0c.27,0,.6.4.92.46h0V13a4.93,4.93,0,0,1-3.38-2.22h.12A13.11,13.11,0,0,1,99.62,12V8c-.49-.13-1-.27-1.59-.47s-2-.69-2.11-1.22a1.86,1.86,0,0,1,.68-1c.27-.16,1-.41,1.67-.77.46-.26.91-.65,1.35-.89V1.45l-.8.38c-.77.35-1.56.54-2.14.86a13.93,13.93,0,0,0-2.52,2.14c-.11,1.62-2,1.4-4,1.2-2.23-.22-4.27-.25-6.51-.46-1.89-.18-3.93-.44-5.84-.49-1.57,0-3.32.26-5,.24-1.44,0-2.88-.32-4-.27-.62,0-1.23.21-1.87.22-2.33.05-4.92.31-7.2.33-.68,0-1.37-.14-2-.09-.37,0-.77.26-1.2.31-1.63.19-3.51-.48-5.1-.08-.41.1-.59.43-1,.48A4.25,4.25,0,0,1,49.27,6a25.25,25.25,0,0,0-3.69,0c-1.26.06-2.57,0-3.7.11-.48.06-1.06.31-1.68.39-1,.15-2.58.2-3.12.72-.14.13-.2.59-.44,1-.45.8-1.12,1.08-.87,2.44a4.15,4.15,0,0,0,.73,1.49,7.23,7.23,0,0,0,1.12.7c.65.39,1.07.91,2,.79.51-.06,1-.62,1.66-.83,1.11-.38,2.46.06,3.64,0,.41,0,.55-.23.84-.23s.56.23.86.27a7.43,7.43,0,0,0,3.13-.52,36.5,36.5,0,0,1,4.89-.61c.73-.07,1.42-.41,2.1-.47A21.94,21.94,0,0,0,59,11c.41-.08.78-.27,1.2-.37a19.61,19.61,0,0,0,2.41-.43c.56-.25.49-.83,1-1.37Z" transform="translate(-0.03 0)" style="fill:#fff"/><path d="M114,3c-1.16-1.43-3.17-1.17-5.38-1-1.08.08-2.16,0-3.57.17-.52.07-1.07.34-1.62.45a17.19,17.19,0,0,0-3.72,1,13.17,13.17,0,0,0-1.47,1C97.77,5,97,5,96.6,5.28a1.6,1.6,0,0,0-.68,1c.06.53,1.48,1,2.11,1.22,1,.33,1.82.51,2.52.71a19.73,19.73,0,0,0,2.63.63,21.77,21.77,0,0,0,6.74.2c1-.13,2.23-.54,3.37-.73s2.86-.25,3-1.09c.08-.55-.58-1-.79-1.41A20.49,20.49,0,0,0,114,3Z" transform="translate(-0.03 0)" style="fill:#ed1c24"/><path d="M19.42,43.61c.53-.21.69-.84,1-1.32a7.85,7.85,0,0,1,1.19-2.06,6.34,6.34,0,0,1,.6-1.45c.1-.2.3-.36.39-.55s.1-.36.17-.52.34-.6.5-.9a5.61,5.61,0,0,1,.49-.86c.14-.17.36-.26.47-.45s.16-.51.29-.76a13.12,13.12,0,0,1,.8-1.44c.15-.24.27-.51.43-.73s.35-.32.49-.51c.33-.45.64-1.33,1.39-1.32a1,1,0,0,1,.83.69,4.45,4.45,0,0,1,0,.73,8,8,0,0,1,.17,1.38c0,.53-.21,1.13-.23,1.69s-.21,1.33-.24,2a2.83,2.83,0,0,1,0,.65c0,.41-.18.92-.2,1.45a7.32,7.32,0,0,0,.1,1.48c.1.54.34,1,.39,1.55a7.31,7.31,0,0,1,0,1.62v.56c0,.17-.14.34-.16.55-.05.44.06,1,0,1.45a20.32,20.32,0,0,0,0,3.31,1.63,1.63,0,0,1-1.19,1.27,2.6,2.6,0,0,1-2.49-1.24,3.94,3.94,0,0,0-.1-.66,7.15,7.15,0,0,1-.16-1.13,8.7,8.7,0,0,0-.13-.87c0-.24-.2-.49-.23-.72s0-.63,0-.93v-1c0-.34.16-.74.17-1.1A15.54,15.54,0,0,1,24,41.88a20.94,20.94,0,0,1,.8-3.14,2,2,0,0,0-.3-2,6,6,0,0,0-1.09,1.83c-.17.32-.28.67-.47,1s-.37.62-.53.93a21.49,21.49,0,0,1-.95,2c-.17.26-.42.41-.4.86a10,10,0,0,0-.8,1.73,4.11,4.11,0,0,1-.53,1.48c-.27.32-1.24.61-1.48,0-.11-.26,0-.49,0-.76a23.06,23.06,0,0,0-.83-3.14c-.14-.62.06-2.34-.27-2.55-.53-.35-1.21.29-1.42.66s-.33.48-.4.65,0,.5-.13.76a3.32,3.32,0,0,0-.23.42c-.05.16,0,.33-.07.47a2.7,2.7,0,0,0-.26.63,5.38,5.38,0,0,0,.07.69v1.72c0,.2-.07.39-.06.59s.08.31.1.48,0,.52,0,.76A12.81,12.81,0,0,1,15,49.81a4.26,4.26,0,0,1-.16,1A2.3,2.3,0,0,1,12.57,52a6.27,6.27,0,0,1-1.57-1c-.59-.39-.68-.58-.6-1.62,0-.36.13-.73.17-1.24.06-.77.2-1.61.3-2.34v-.76c.06-.45.35-1,.4-1.38a12.14,12.14,0,0,0,0-1.35,7.62,7.62,0,0,1,.2-1.06c.07-.37.08-.75.13-1.11s.16-.72.2-1.07c.08-.63.06-1.21.17-1.79a3.82,3.82,0,0,1,.1-.69c0-.22.14-.39.16-.58a3.31,3.31,0,0,1,0-.63c.06-.2.21-.39.26-.62a1.53,1.53,0,0,0,0-.48c.08-.4.29-.86.43-1.31s.24-.88.39-1.31c.1-.21.32-.45.5-.76s.66-1.48,1.16-1.52c.32,0,.83.57.89.86s-.06.7,0,1a4.41,4.41,0,0,0,.83,1.21c.28.4.67.75.89,1.1a7.25,7.25,0,0,1,.37.76,7.15,7.15,0,0,1,.79,2.55,8.4,8.4,0,0,1-.07,1v1.68a8.76,8.76,0,0,0-.1,1.35A9.71,9.71,0,0,0,19,42.33a6.52,6.52,0,0,0,.46,1.28Z" transform="translate(-0.03 0)" style="fill:#fff"/><path d="M49.61,30.85a5.08,5.08,0,0,1,.78,0,3.13,3.13,0,0,1,2.15.94,2.61,2.61,0,0,1,.4,1.44,4.84,4.84,0,0,1-.47,1.07,6.47,6.47,0,0,1-1.52,2,2.63,2.63,0,0,1-1.34.56v-1l.25-.1A4.27,4.27,0,0,0,51,34.81c.52-.63,1.08-1.92.33-2.58a2,2,0,0,0-1.59-.45h-.15v-.94Zm0,18.57h0v.18a1.61,1.61,0,0,1,0,.31Zm-4-19.85h0c-.42.1-1,1-1.09,1.48s.18,1.42.07,2.07c0,.23-.27.43-.26.62s.3.44.36.66c.11.45,0,.89.1,1.38.11.74.2,1.64.3,2.34a5.88,5.88,0,0,0,.06,1c.12,1,.45,2,.56,3v.62c0,.21.11.34.13.52s0,.5,0,.72c.07.43.22.79.3,1.18s.11.81.2,1.3c.06.33.21.62.26,1s.11.67.17,1.08a11.34,11.34,0,0,0,.3,2.17,1.7,1.7,0,0,0,1.45.48,1.51,1.51,0,0,0,1-1.21v-.49c-.09-.46-.42-.84-.51-1.4a5.9,5.9,0,0,0-.1-.9c-.1-.32-.16-.55-.23-.86-.28-1.12-.25-2.44-.56-3.38-.09-.27-.39-.51-.4-.83s.17-.39.23-.65a4.49,4.49,0,0,0,.07-1.1,3.71,3.71,0,0,0-.14-.49,4.69,4.69,0,0,1,0-.65,2.57,2.57,0,0,1-.1-1.23,1.74,1.74,0,0,1,1-1.1,2.35,2.35,0,0,1,.53,0h.28V35.84a1.55,1.55,0,0,1-.64.08,2.57,2.57,0,0,1-1.1-.8,2.48,2.48,0,0,1-.36-1.41,2.21,2.21,0,0,1,.23-.55c.18-.42.32-.87.7-1.07a3.16,3.16,0,0,1,1.17-.3v-.94a3.57,3.57,0,0,0-1.37.28c-.49.22-1.34,1-1.59.13v-.55a2.72,2.72,0,0,0-.33-.66c-.2-.37-.29-.57-.7-.48Z" transform="translate(-0.03 0)" style="fill:#fff"/><path d="M36.36,45.78c-.2,0-.29.2-.43.31l-.43.28c-.25.23-.35.62-.73.79a2.56,2.56,0,0,1-.67.13v-.94h0c.16-.06.29-.25.47-.34a4,4,0,0,0,.43-.18c.36-.25.61-.67,1-.93,0-.37.33-.61.26-1s-.69-.69-1.19-.69c-.17,0-.38.08-.59.1h-.41V41.75a10.7,10.7,0,0,1,1.37.06c.47.06,1.19.19,1.56-.31a1.82,1.82,0,0,0,.22-1.07c0-.16.12-.34.14-.51a10.52,10.52,0,0,1,.13-1.24c0-.35-.06-.87,0-1.35a16,16,0,0,0,.1-2.1,10.41,10.41,0,0,0-.2-1.31,4.12,4.12,0,0,0-.63-1.86c-.13-.2-.32-.34-.47-.56s-.33-.8-.62-.86a2.05,2.05,0,0,0-1,.24c-.22.09-.42.19-.61.28v-.73a3.65,3.65,0,0,1,.61-.34c.37-.13.83-.21,1.19-.31a2.72,2.72,0,0,1,2,.55,6,6,0,0,1,1.12.83,4.53,4.53,0,0,1,1.33,2.76c0,.4-.07.82,0,1.24a4.77,4.77,0,0,0,.13.51,5.23,5.23,0,0,1,0,.56c0,.44.23.85.23,1.2a4.34,4.34,0,0,1-.09.52c-.11,1,.06,2.14,0,3.14,0,.32-.18.63-.2,1a1.81,1.81,0,0,1,0,.52,3.89,3.89,0,0,0-.2.48c-.09.38-.14.89-.2,1.35a12,12,0,0,0-.16,1.34c0,.22.15.45.16.69s-.11.6-.1.9.14.39.17.62a10.36,10.36,0,0,0,.1,1.24,3.85,3.85,0,0,0,.36.62c.27.49.79,1.36,1.66,1.11,1.13-.34,1.53-2.19,2.12-3.14a3.42,3.42,0,0,0-.07-.9c-.15-.31-.71-.3-.93-.51a.86.86,0,0,1,.09-1.21.6.6,0,0,1,.21-.14,1.25,1.25,0,0,1,1.23.55,1.27,1.27,0,0,0,.09.55,1.94,1.94,0,0,1,.17.45A2.36,2.36,0,0,1,45,48.05c0,.17-.07.38-.13.52s-.31.37-.46.65-.14.42-.23.59-.37.39-.47.59c-.24.46-.26.67-.72,1a3.16,3.16,0,0,1-2.52.6,7.28,7.28,0,0,1-1.16-.56,5.91,5.91,0,0,1-.76-.82,8.52,8.52,0,0,1-.72-.87,7.36,7.36,0,0,1-.9-3.24,1.14,1.14,0,0,0-.53-.72ZM34.1,47.29h0v-.94c-1,.36-2.19-.18-2.21-1.13a2.26,2.26,0,0,1,1-1.72,4.68,4.68,0,0,1,1.18-.18V41.75a4.47,4.47,0,0,0-2.8.72,3.76,3.76,0,0,0-1.09,2.75,1.87,1.87,0,0,0,.93,1.7c.12.07.29.06.46.13a4.68,4.68,0,0,0,1.19.52,3,3,0,0,0,.89-.21l.42-.07Zm0-16.13h0v-.73l-.1.07a3.88,3.88,0,0,0-1.16.8c-.14.12-.32.2-.43.31s-.23.44-.4.65-.37.29-.46.45a6.56,6.56,0,0,0-.5,1.34,3.57,3.57,0,0,0-.1.73c0,.2-.13.39-.13.55,0,.52.25,1,.89.79A6.93,6.93,0,0,1,32,33.33a3.9,3.9,0,0,1,.33-.38c.11-.15.18-.36.26-.48a4.14,4.14,0,0,1,.63-.55,7,7,0,0,1,.63-.59l.32-.17Z" transform="translate(-0.03 0)" style="fill:#fff"/><path d="M64.48,34c-.35,0-.5.6-.72.9s-.38.31-.53.48,0,.27-.07.41A8.46,8.46,0,0,0,62.4,37a13.61,13.61,0,0,1-.63,1.38c-.25.38-.45.44-.6.72s-.08.37-.16.55-.28.38-.4.59-.21.43-.33.62c-.25.43-.41.88-.63,1.31-.12.24-.35.44-.46.69s0,.4-.13.59a3.78,3.78,0,0,0-.33.48c-.18.36-.26.8-.43,1.18s-.5.73-.66,1.1-.21.77-.34,1.13a2.22,2.22,0,0,1-.2.56,2.32,2.32,0,0,1-.13.58,1.46,1.46,0,0,1-1.25.52,1.93,1.93,0,0,1-1-.59c-.33-.48-.16-1.23-.19-2.1a31.07,31.07,0,0,1,0-3.86c0-.66.22-1.3.26-1.93v-.73a4.39,4.39,0,0,1,.1-.52V38a27.18,27.18,0,0,0,0-4.42,12.11,12.11,0,0,1-.26-1.69c.06-.56.82-1.86,1.59-1.59.59.22.48,1.55.69,2.42.08.31.29.7.36,1.1a5.57,5.57,0,0,1,0,1,6,6,0,0,1,.11.72c0,.38-.25.52-.31.76-.12.62.23,1.58.17,2.45,0,.24-.16.42-.17.65s.11.49.1.76a4.08,4.08,0,0,1-.06.79,4.34,4.34,0,0,0-.13.73c0,.63.2,1.31.43,1.34s.62-.53.86-.89a11.91,11.91,0,0,0,.62-1.1c.18-.33.53-.64.67-.93s.06-.32.13-.45a8,8,0,0,1,.56-.83c.19-.28.29-.64.46-.93.08-.13.25-.24.33-.38.19-.31.29-.66.47-1a9.28,9.28,0,0,1,.56-.83c.41-.55.71-1.15,1.09-1.72a8.63,8.63,0,0,1,.83-1,13.76,13.76,0,0,1,1.35-1.79c.13-.11.31-.19.44-.31s.33-.57.52-.73,1-.54,1.16,0c.1.28-.08.61-.1,1a11,11,0,0,1,0,1.41,19.93,19.93,0,0,0-.13,2.14,11.06,11.06,0,0,1,0,1.82c0,.18-.17.35-.2.52a6,6,0,0,0,.2,1.27v.56c0,.17.18.49.2.72.07.82-.08,1.66,0,2.41,0,.35.2.64.2.93s-.08.43-.07.62a6.28,6.28,0,0,0,.27.87c.1.54.12,1.23.26,1.86s.36,1.19.53,1.79.65,1.2.63,1.69a2.29,2.29,0,0,1-.43,1,2,2,0,0,1-.63.76,2.08,2.08,0,0,1-1.26,0c-.3-.16-.5-1-.66-1.48a16.31,16.31,0,0,1-.52-1.59,11.56,11.56,0,0,0-.24-1.14c-.07-.2-.22-.44-.26-.62a7.23,7.23,0,0,0-.07-.72c-.13-.86-.28-1.86-.43-2.76a14.3,14.3,0,0,1-.33-1.58v-.87c0-.29-.18-.82-.19-1.2,0-.21.08-.43.09-.66,0-.48.05-1,.07-1.51s-.08-1-.07-1.42c0-.68.45-1.37.1-1.93Z" transform="translate(-0.03 0)" style="fill:#fff"/><path d="M123.21,29.84a1.12,1.12,0,0,1,.4,1.08c0,.24-.2.45-.24.69a8.8,8.8,0,0,1,0,.89c-.07.28-.2.39-.27.62-.12.46-.08,1.08-.16,1.66a6.53,6.53,0,0,1-.2.76,6.07,6.07,0,0,1-.3,1.89,7.38,7.38,0,0,1,.07,2.69v.52c0,.16-.19.5-.23.76-.25,1.36-.26,2.85-.5,4.24,0,.2-.13.36-.17.55a3.53,3.53,0,0,0,0,.65c-.08.45-.29.86-.4,1.28a5.67,5.67,0,0,1-.36,1.28,2.26,2.26,0,0,1-1-.07c-.2-.11-.36-.66-.53-1-.4-.74-.66-1.25-1.07-2a37.22,37.22,0,0,1-1.88-4.9c-.12-.34-.36-.84-.53-.89-.33-.11-.5.11-.66.24s-.4.27-.46.41a8.11,8.11,0,0,0-.14.86c-.06.25-.21.4-.23.59a7.23,7.23,0,0,1,0,1.14c0,.67-.21,1.41-.26,2.1v.9c0,.27-.15.37-.17.55a9.53,9.53,0,0,0,.17,1.07v1.1c0,.5.26,1,.13,1.42a1.65,1.65,0,0,1-1.62,1A2,2,0,0,1,111,50.47a10,10,0,0,1,0-1.55V47.47c0-.66.17-1.36.19-2.07v-.51c0-.59.2-1.23.23-1.87V41.61a13.31,13.31,0,0,1-.07-1.41c0-.18.18-.35.24-.55a1.34,1.34,0,0,0,0-.49c0-.17.17-.32.2-.48.11-.64.1-1.31.2-1.93a10.37,10.37,0,0,1,.4-1.55c0-.17.15-.3.19-.45a8.33,8.33,0,0,1,.23-1.21,3,3,0,0,1,.87-.79c.27-.2.69-.58,1-.55.58,0,.71.91.83,1.41,0,.18.18.32.23.52a3.48,3.48,0,0,0,.1.69c.1.22.19.66.3,1,.3.88.52,2,.79,2.9a3,3,0,0,1,.37,1.31,7,7,0,0,1,.36.9c.15.44.28.76.43,1.27.07.24.25.44.33.69s0,.26.07.38a2.29,2.29,0,0,1,.26.52c0,.19,0,.28.07.41a14.41,14.41,0,0,0,.66,1.42,2.72,2.72,0,0,0,.76,1.3c.51-.26.39-.8.43-1.3.07-.84.32-1.82.43-2.66.07-.53.06-1.08.13-1.62s.28-1.36.33-2v-.9c0-.29.13-.46.14-.69a3.88,3.88,0,0,0-.07-.48,9.61,9.61,0,0,1,.13-1.42c0-.15.14-.32.17-.48.08-.39,0-.85.1-1.24,0-.18.14-.33.16-.48a3,3,0,0,1,0-.52c.06-.58.38-1.13.4-1.66s-.31-1.7.66-1.52Z" transform="translate(-0.03 0)" style="fill:#fff"/><path d="M109.85,50.12a2.64,2.64,0,0,1-1.76,1.1,3.92,3.92,0,0,1-1.66-.51,2.48,2.48,0,0,1-.93-.86c-.12-.17-.31-.28-.39-.42s-.15-.44-.26-.69-.25-.4-.33-.58c-.29-.66-.52-1.59-1.16-1.59-.27,0-.43.29-.66.41a2.77,2.77,0,0,1-.73.31,2.21,2.21,0,0,0-.63,0,.81.81,0,0,0-.29.12V46.6a2.84,2.84,0,0,0,1.08-.2c.29-.15.76-.52.8-.76a4.17,4.17,0,0,0-.1-.79c-.21-.56-1-.69-1.78-.68V41.81a3.25,3.25,0,0,0,2.64-.21,4.84,4.84,0,0,0,1.22-2.82c.08-.46.07-.86.13-1.45.15-1.26.52-2.47.57-3.55a3,3,0,0,0-.7-2.52,2.61,2.61,0,0,0-1.29.24,4.22,4.22,0,0,0-.69.21c-.29.16-.45.59-.7.86s-.42.34-.53.49a1.22,1.22,0,0,0-.23,1.24,1.39,1.39,0,0,1-.42.57V32.55l.42-.43a5.6,5.6,0,0,1,1.39-1.27,5.3,5.3,0,0,1,1.66-.49,3.56,3.56,0,0,1,.63.14,4.57,4.57,0,0,1,1.25.35,4.13,4.13,0,0,1,1.66,2.27c.09.35.1.73.19,1.11a6.91,6.91,0,0,1,.37,1.17,5.69,5.69,0,0,1-.07.83v.86q-.19.67-.33,1.38v1.69a9.35,9.35,0,0,1-.44,1.69v.62c0,.38-.24.73-.26,1.1v1.86a7.67,7.67,0,0,0-.17,1.35,17.92,17.92,0,0,0,.4,2.38c.08.49.06,1,.59,1a.93.93,0,0,0,.88-1,1,1,0,0,0,0-.17c-.06-.59-.74-.8-.59-1.32s1.1.08,1.29.31a2.1,2.1,0,0,1,.36,1.31c0,.36-.33.3-.32.83Zm-8.8-2.74h0V46.6a2.76,2.76,0,0,1-1.5-.27,1.25,1.25,0,0,1-.16-1.62,1.68,1.68,0,0,1,1.25-.52h.41V41.81c-.3-.06-.6-.1-.9-.13a3.38,3.38,0,0,0-2.71.92c-.14.13-.27.37-.43.55a2,2,0,0,0-.67,1.21,2.34,2.34,0,0,0,.3,1.32c.08.15.12.35.2.47s.26.26.36.39a3,3,0,0,0,2.29.85,6.46,6.46,0,0,0,1.39,0h.17Zm0-12.51h0V32.55a4.46,4.46,0,0,0-.84,1,2.35,2.35,0,0,0-.29.93c0,.26.53.55.92.48a.49.49,0,0,0,.21-.08Z" transform="translate(-0.03 0)" style="fill:#fff"/><path d="M132.24,46.54c.71-.14.59-1.09.7-1.76.19-1.22.46-2.49.76-3.73a4.86,4.86,0,0,1,.1-.55,11.54,11.54,0,0,0,.53-1.38v-.38a8.66,8.66,0,0,1,.46-2c-.14-.48.14-.85.23-1.24s.21-1.09.3-1.7.25-1.13.33-1.61a2.26,2.26,0,0,0,0-.52,3.22,3.22,0,0,1-.09-.76.6.6,0,0,1,.46-.41c.33,0,.66.45.69.82s-.19.57-.26.93a2.51,2.51,0,0,0,0,.73c0,.23-.11.27-.14.41a5.85,5.85,0,0,0,0,.73c0,.25-.16.33-.2.52a1.13,1.13,0,0,0,0,.37c-.05.14-.1.28-.16.41-.09.38-.1.78-.17,1.15,0,.18-.16.36-.2.55a14,14,0,0,1-.2,1.41,12.67,12.67,0,0,1-.52,1.69c-.07.16-.27.35-.3.52a7.32,7.32,0,0,1,0,.82c0,.17-.13.34-.17.52a2.26,2.26,0,0,0,0,.52c0,.16-.16.27-.2.41a9.73,9.73,0,0,0-.13,1.21,6.92,6.92,0,0,1-.17.72,13.6,13.6,0,0,1-.09,1.56c-.11.49-.4,1-.47,1.41-.11.73,0,2-.63,2.1a1.15,1.15,0,0,1-.93-.55,6.94,6.94,0,0,1-.42-1.1c-.59-1.64-1-3.5-1.53-5.28-.11-.4-.42-1.2-.76-1.21s-.28.2-.4.56a5.18,5.18,0,0,0-.26.65c-.12.66,0,1.42-.17,2.1,0,.19-.16.36-.19.52-.08.38,0,.73-.1,1.07a10.62,10.62,0,0,0-.3,1.59,8.3,8.3,0,0,1,0,1.41,1.08,1.08,0,0,1-.73.76c-.87.13-1.09-.7-1.06-1.62,0-.75.27-1.77.33-2.38V46a10.51,10.51,0,0,1,.24-1.25,50.28,50.28,0,0,0-.11-5.21c0-.64.13-1.48.07-2.34a9.89,9.89,0,0,1,0-2.55,5.6,5.6,0,0,1,.66-1.07c.89-.51,1.73,1,2,1.66.12.34.18.74.33,1.1a6.73,6.73,0,0,1,.36,1.07v.69a5.39,5.39,0,0,0,.27,1,26.31,26.31,0,0,0,.93,2.76,17.46,17.46,0,0,0,.43,2.38c.14.4.35.75.46,1.17a3.2,3.2,0,0,0,.4,1.21Z" transform="translate(-0.03 0)" style="fill:#fff"/><path d="M94.92,37.57c.15-.21-.13-.43,0-.59a13.08,13.08,0,0,1,.82-1.27c.17-.32.25-.61.43-.93s.18-.37.27-.52.34-.32.47-.52.1-.35.19-.51A6.52,6.52,0,0,1,98,32.06c.35-.42.82-1.2,1.36-1.25a.61.61,0,0,1,.63.59v0c0,.54-.7,1-1.1,1.28a5.35,5.35,0,0,0-1.42,2c-.1.22-.24.37-.33.55s-.07.32-.13.45a5.74,5.74,0,0,1-.43.66c-.15.21-.27.48-.4.65s-.38.3-.53.49-.18.33-.29.48a4.72,4.72,0,0,0-.37.41c-.21.34-.34.83-.56,1.18-.12.18-.5.45-.63.65a4.08,4.08,0,0,0-.2.52c-.08.14-.33.31-.43.48s-.15.4-.26.59a5.86,5.86,0,0,0-.3.55c-.18.36-.43.7-.59,1.07-.3.6-.46,1.29-.73,1.89-.15.31-.38.59-.54.9-.07.15-.08.34-.16.48s-.49.41-.63.62a11.79,11.79,0,0,1-.5,1.31,8.08,8.08,0,0,1-.76.79c-.12.15-.21.31-.33.45s-.3.26-.39.38-.21.58-.53.73a1.17,1.17,0,0,1-1.49-.41c-.18-.4.06-1.12,0-1.66s-.52-1.34-.7-2.11c-.1-.44,0-1-.13-1.48a4,4,0,0,0-.13-.55c-.08-.54,0-1.11-.1-1.66,0-.24-.17-.48-.2-.72-.07-.65,0-1.4-.06-2a50.84,50.84,0,0,1-.3-7.4,2.19,2.19,0,0,1,.23-.83,4,4,0,0,1,1-.89c.5-.33,1-.53,1.36,0a5.67,5.67,0,0,1,.36,1.28A14.2,14.2,0,0,1,87.44,34v.45c0,.19.2.41.23.62a5.82,5.82,0,0,1-.13,1.38v.79a4.63,4.63,0,0,0-.1.65,9.08,9.08,0,0,0,.26,1.38c.17,1,.17,2,.34,2.9.08.46.15.91.23,1.38a3.92,3.92,0,0,0,.33,1.17,1.57,1.57,0,0,0,1.06.45c.49-.09.51-1,.69-1.45a16.71,16.71,0,0,1,1.39-2.24c.16-.26.24-.56.4-.79.35-.53.8-1,1.19-1.52a11.75,11.75,0,0,1,1.13-1.59c.15-.12.37.15.49,0Z" transform="translate(-0.03 0)" style="fill:#fff"/><path d="M145.34,43c1.32.17,2.79-.2,4.3-.1.41,0,.81.14,1.23.17a18.32,18.32,0,0,1,2.18.21c.22,0,.42.12.63.13s.57-.17.8,0a.55.55,0,0,1,.09.41c-.13.45-.76.18-1.32.07-.39-.08-.93-.14-1.32-.21a4.76,4.76,0,0,0-1,0,4.75,4.75,0,0,1-.63-.14,3.08,3.08,0,0,0-.53.08c-.32,0-.65-.2-1-.21s-.84.09-1.26.17h-.66c-.2,0-.3.17-.5.21a7.1,7.1,0,0,1-1.22,0,2,2,0,0,0-.76.38,8.84,8.84,0,0,0,.52,2.59,11.33,11.33,0,0,0,.34,1.27c.24.59.39,1,.63,1.63a1,1,0,0,1,.13.51.8.8,0,0,1-.66.59c-.6,0-1.13-.84-1.29-1.32-.3-.85-.47-1.74-.73-2.75-.11-.43-.24-.79-.36-1.38a7.65,7.65,0,0,0-.27-1.49,2.15,2.15,0,0,0-1.44-.6v-.81h.12c.25.09.59.4,1,.13.11-.27-.07-.48-.13-.72a9.23,9.23,0,0,1-.31-1.65c-.08-1,.06-2.11-.33-2.66h-.31V32.38a4.09,4.09,0,0,1,.88,1.26,6.37,6.37,0,0,1,.59,1.65v.49c0,.16.22.42.26.62a1.38,1.38,0,0,1,0,.41c0,.12.16.46.2.69.08.52.17,1.07.2,1.59s0,.77,0,1.21.22.9.36,1.34.14,1.12.4,1.31a1.45,1.45,0,0,0,1.12,0Zm-4.05.29h0v-.81c-.48-.17-1-.37-1.11-1.07,0-.38.23-1,.27-1.62a5.57,5.57,0,0,1,0-1,5.86,5.86,0,0,1,.3-.55c.15-.36.22-.64.54-.66v-5.2a1,1,0,0,0-.68-.22c-.51,0-.49.4-.73.9-.13.27-.28.36-.36.58s-.21.77-.33,1.17-.27.77-.4,1.14-.17.83-.29,1.24c-.22.73-.38,1.29-.6,2-.09.28-.21.52-.3.79a3.87,3.87,0,0,1-.13.59c-.1.22-.53.5-.56.62-.08.29.14.76.1,1.31a11.8,11.8,0,0,1-.4,1.76c-.19.74-.23,1.38-.46,2.11a8.56,8.56,0,0,0-.24,1,6.88,6.88,0,0,0-.26,2.07,2,2,0,0,0,1.22.89,1.57,1.57,0,0,0,1.49-.69c.35-.54.14-1.17.24-1.85,0-.16.13-.32.19-.56.15-.56.12-1.44.27-2.1.21-.94.38-1.52,1.12-1.8a2.6,2.6,0,0,1,1.11,0Z" transform="translate(-0.03 0)" style="fill:#fff"/><path d="M165.43,55.67v1.11c-.77-.08-1.55.1-2.32.06-.28,0-.55-.1-.83-.1s-.56.12-.82.14a11.92,11.92,0,0,0-1.69,0,5.73,5.73,0,0,0-.56.14,6.17,6.17,0,0,1-.86,0,5.35,5.35,0,0,0-.8-.14c-.25,0-.5.21-.76.24a5.46,5.46,0,0,1-.69-.1c-.17,0-.34.1-.5.1s-.34-.13-.53-.13a5.32,5.32,0,0,0-.56.06H154c-.15,0-.28.16-.43.17s-.33-.08-.5-.06a5.92,5.92,0,0,1-.86.17c-.29,0-.61-.15-.89-.14s-.53.19-.8.21c-.53,0-1-.11-1.62-.1s-1.61.4-2.28.13c-.13,0-.17-.17-.3-.17s-.36.18-.53.21c-.44.05-.94,0-1.45.07-.81.08-1.59.11-2.55.13-.36,0-.72.12-1,.11s-.41-.15-.6-.14-.56.17-.89.21a8,8,0,0,1-1,.13c-.35,0-.66-.11-1-.1-.52,0-1,.16-1.56.17s-.81,0-1.22,0-.58-.15-.89-.14-.53.13-.79.14c-.53,0-1.07-.14-1.6-.11S130.4,58,130,58c-.84,0-1.67-.14-2.51-.14-.33,0-.66.07-1,.07-.92,0-1.86-.15-2.77-.14-.18,0-.36.09-.53.1-.68,0-1.38-.25-2-.2a8.43,8.43,0,0,0-.9.2,16.72,16.72,0,0,1-2-.2c-.27,0-.54.09-.83.07a9.31,9.31,0,0,0-1.06-.14,6.93,6.93,0,0,0-.79.17,10.64,10.64,0,0,1-1.69-.17,9.87,9.87,0,0,0-1.22.1,8.83,8.83,0,0,1-1.26,0c-.82,0-1.61.09-2.41.06-.27,0-.54-.08-.8-.1-1.12-.07-2.29.08-3.37.07-.22,0-.45-.08-.66-.07s-.51.12-.77.14a6.54,6.54,0,0,1-.89-.07c-1-.07-2.1.08-3.14,0-.55,0-1.09-.27-1.59-.27a9.43,9.43,0,0,1-1.06.07c-.32,0-.66-.27-1-.28s-.54.16-.8.17a4.1,4.1,0,0,1-.69-.1c-.79-.06-1.63,0-2.42-.1a5.93,5.93,0,0,1-.66-.18c-.23,0-.74,0-1.09,0s-.5-.2-.76-.23a8.44,8.44,0,0,0-1,.09c-.61,0-1.28-.19-1.89-.2s-1.24.09-1.85.07c-.43,0-.85-.12-1.26-.1-.69,0-1.34.22-2,.2-.21,0-.44-.1-.66-.1-.58,0-1.25.3-1.92.38H77.38c-.19,0-.78.29-1.19.34h-.76c-.24,0-.59.22-.9.27s-.85.09-1.28.14c-.77.09-1.51,0-2.26.07-.3,0-.6.23-.89.28a3.55,3.55,0,0,1-.73,0c-.52,0-1.07.15-1.58.24s-1.07.1-1.59.14c-1.13.07-2.26-.25-3.38-.11-.44.06-.84.28-1.29.31H60.7c-.71,0-1.46.13-2.18.1s-1.37-.24-2.05-.27-1.4.17-2.12.17c-.2,0-.4-.07-.59-.08-.51,0-1,.22-1.53.25s-.85,0-1.28,0-.85.06-1.26.06-.64-.06-1-.06a11.57,11.57,0,0,0-1.39.06,9.84,9.84,0,0,1-1.33,0c-.22,0-.46.09-.69.1h-.59c-.2,0-.61.09-.9.07s-.39-.12-.6-.14-.68.08-1,.07-.6-.16-.89-.18-.47.11-.7.11c-.87,0-1.78-.1-2.64-.11-.22,0-.45-.07-.66-.06s-.4.09-.6.1a8.34,8.34,0,0,1-1,0c-.21,0-.41-.12-.63-.14s-.48.06-.72.05-.45-.14-.67-.14A5.63,5.63,0,0,0,33,59h-.63c-.19,0-.36,0-.53,0a11.8,11.8,0,0,1-1.46-.07,4.17,4.17,0,0,1-.79,0,5.22,5.22,0,0,0-1-.17c-.29,0-.37.17-.56.21a5.32,5.32,0,0,1-1.13.07c-.19,0-.39-.1-.59-.11a5,5,0,0,0-.56.11c-1.23.09-2.48-.11-3.81-.14h-.79a12.33,12.33,0,0,1-1.92.27c-.29,0-.57-.14-.9-.17a7.33,7.33,0,0,0-1.62.07c-.13,0-.28.13-.42.14a4.52,4.52,0,0,0-.83,0,4.51,4.51,0,0,1-.9,0c-.3,0-.35.14-.53.17a7.64,7.64,0,0,1-2.24,0,9.21,9.21,0,0,0-.9-.25c-.37,0-.7.24-1.06.28a5.16,5.16,0,0,1-.79,0c-.26,0-.78.14-1.16.17-.84.06-1.68-.07-2.61,0a5.18,5.18,0,0,0-.53.14c-.18,0-.59,0-.86,0s-.46.13-.7.18-.8-.12-1.19-.14H1.32c-.44,0-.85-.34-1.29-.27v-1a23.43,23.43,0,0,1,2.65,0c2.56,0,5.09-.61,7.64-.48.83,0,1.63.11,2.48.07s1.74,0,2.58-.1a31.65,31.65,0,0,1,5.06-.07c.85,0,1.75-.09,2.62-.14,1.7-.1,3.43.15,5.22.07.88,0,1.75,0,2.62-.07s1.8,0,2.71,0h2.55a42,42,0,0,1,5.26.13,4.89,4.89,0,0,1,1.26.11c.42.11.87,0,1.29.1a16.68,16.68,0,0,0,2.45-.1c2.6,0,5.2-.05,7.81-.17a15.37,15.37,0,0,1,2.54-.07,26.88,26.88,0,0,0,5.23,0c2.19-.19,4.5.13,6.48-.24.44-.08.89,0,1.3-.1.84-.15,1.67-.18,2.47-.28,1.64-.2,3.25-.48,4.87-.65l5-.52c.86-.09,1.74-.05,2.61-.07a42.38,42.38,0,0,1,5.16.28c.84.08,1.66.2,2.49.27,3.4.31,6.92.44,10.38.45,2.57,0,5.27-.23,7.74-.1.84,0,1.69-.06,2.52,0,1.75,0,3.53-.09,5.29,0,5.2.26,10.49.09,15.82.17,3.49.06,7-.34,10.42-.34,1.72,0,3.46-.15,5.19-.17.87,0,1.78-.06,2.65-.1,4.22-.26,8.93-.34,13-.56Z" transform="translate(-0.03 0)" style="fill:#fff"/><path d="M39.32,69.42c0,1.1-1,.69-1.94.68s-2.25.33-2.45-.27c.08-.46,1.13-.7,1.68-.81A3.36,3.36,0,0,1,39.32,69.42Z" transform="translate(-0.03 0)" style="fill:#fff"/></svg>