<svg id="Слой_1" data-name="Слой 1" xmlns="http://www.w3.org/2000/svg" viewBox="0 0 165.43 85.14"><defs><style>.cls-1{fill:#231f20;}.cls-1,.cls-2{fill-rule:evenodd;}.cls-2{fill:#ed1c24;}</style></defs><title>logo_black</title><path class="cls-1" d="M49.65,68.12c.38.72-.08,1.18,0,2.08,1.9,1,3.16-2.4,4.88-2.08.85.16,1.39,1.1,1.27,2.83,1.64.4,2-1.2,3.09-.75.17,1.19-.93,1-.91,2.07.88.43,1.7-.35,2.35-.75a21.61,21.61,0,0,0,2-1.32c1-.78,1.76-2.42,3.26-1.89,0,1.53-1.09,1.89-1.45,3,.8.35,1.19-.51,1.63-.75.14-.08.4.07.54,0s.55-.52.91-.76c.82-.55,1.61-1.52,3.08-1.32-.12.88-.78,1.2-1.45,1.51,0,1-1,1-.91,2.07,1.48.41,2.5-1.29,3.81-1.69a2.25,2.25,0,0,1,1.81-1.7c.83-.11.85.63,1.27.94.37-.31.7-1.65,1.27-1.13.63,0,.4.87.36,1.13-.12.82-1.14,1.92-.91,3.21,1.67,1.12,3.29-.77,4.53-1.32.1-.66.49-1,.55-1.7.91-.5,1-1.89,2.35-1.89a1.33,1.33,0,0,1,.36,1.32c-.07.48-.53.62-.72,1a10.3,10.3,0,0,0-1.27,2.07c1.27.07,1.62-.83,2.36-1.32-.37-.59.41-.83.54-1.13s.27-1.38,1.09-1.32c1,1.36-.59,2.64-.91,3.77.81.51,1.65-.35,2.36-.56.23-1.36.86-3.22,2.17-2.83.45.84-.64,1.24-.91,2.07-.16.52,0,1.07-.18,1.7a1.28,1.28,0,0,0,1.27-.38c.23-.22,1.14-.47,1.63-.75.8-.46,1.48-1.11,2.35-1.51.29-1.16,0-2.91,1.64-2.65a4,4,0,0,1,0,2.46c2.3.57,1.72-1.85,3.44-1.89a2,2,0,0,1-.72,2.46c.1.86-.33,1.17-.18,2.07,1.51-.18,2.09-1.34,3.07-2.07,0-1.62.79-2.33,1.27-3.4a4,4,0,0,1,2.54,0c.52,1.6.56,1.94-.36,2.83-.5.47-1,.8-1.63,1.32-.33.29-.52.27-.55.76-.07,1.41,1.63,1.71,2.9,1.51,1.68-.27,2.34-2.43,4-2.46.69,1-.89,1-.73,2.08.91.42,1.71-.36,2.36-.76a19.61,19.61,0,0,0,2-1.32c.94-.74,1.66-2.08,3.08-2.07.61,1.43-1,2-1.27,3.2.42.34,1.13-.22,1.45-.56a13.31,13.31,0,0,0,2.36-1.32c.67-.43,1.23-1.46,2.36-.76-.21.74-.88,1-1.46,1.33-.11.88-.93,1-.9,2.07,1.36.47,2.17-1.26,3.44-1.51a8.52,8.52,0,0,1,1.09-1.7c.36-.43.75-1.25,1.27-.94.79.13.27,1,.18,1.32-.14.51-.61.93-.55,1.32.68.56,1.6-.22,2-.56.12-.69,0-1.68.72-1.71,1.09,0,.21,2.06.72,2.65.76-.1,1.06-.66,1.82-.76.38,1.1-.55,1-.91,1.32s-.62.94-1.26.76a16.31,16.31,0,0,1-.55,2.83,14.45,14.45,0,0,1-1.45,3.4c-.4.72-.77,1.35-1.27,2.08A10.69,10.69,0,0,1,120.48,84c-.7.55-1.33,1.33-2.35,1.13a4.91,4.91,0,0,1-1.45-3.21c0-1.48,1.24-2.31,1.63-3.4.47-.07.55-.56,1.09-.56.52-1.1,1.68-1.59,2.54-2.27.2-.16.33-.61.54-.75s.41.07.54,0c.36-.18.85-1.3,1.64-1.32-.1-.6.32-.67.17-1.33-.25-.31-1,.45-1.81.19-.59.05-.38-.73-.9-.75-1.6.85-2.48,2.46-4.9,2.45-.42-.44-1.11-.6-.9-1.7a10.34,10.34,0,0,0-1.81,1c-.52.34-.81.92-1.82.75-.51-.34-.26-1.48-.54-2.08-1.59.55-2.81,2.06-4.35,2.08a1.39,1.39,0,0,1-.9-1.13,14.87,14.87,0,0,0-2.18,1.32,8,8,0,0,1-3.26-.38c-.52-.46-.62-1.36-1.27-1.7-1.32-.24-2,1.6-3.26,1.14-.89-.32-1-1.43-.72-2.83-1.21,0-1.59.85-2.18,1.5,0,1.17-.21,2-1.09,2.27-.36-.62-.09-1.91-.17-2.83-1.85.45-4.56,3.47-6.35,1.32-.71.49-2.63.64-3.08-.19a7.93,7.93,0,0,1-2.17.95c-.89.17-.69-.8-1.45-.76-.56,0-.7.53-1.09.76-1.35,0-2.2,1-3.62.37a10.73,10.73,0,0,1-.72-2.07c-.48-.23-1.07,1-1.45,1.51-1,0-1.08-.9-1.45-1.51-1.6.21-2.34,2.15-4.35,1.32-.25-.44-.73-.63-.55-1.51a19.26,19.26,0,0,0-1.81.94c-.52.29-1,1-2,.76a8.58,8.58,0,0,1-.36-2.08c-1.82.43-2.27,2.29-4.71,2.08a3.94,3.94,0,0,1-.73-1.51c-2.07,0-3.16,1-5.07,1.13-.4-.4-.46-1.16-.73-1.7a5.55,5.55,0,0,0-2.35,1.89c-.3.38-.21.56-.55,1.32-.1.23-.27.32-.36.57-.51,1.39-.81,3-2.17,3.77.12.69-.4.73-.37,1.32-1.53,1-2.3,2.76-5.07,2.46-.53-.89-1.44-1.6-1.45-2.64,0-1.59,2-3.36,3.63-4.53C44.16,74.18,46,73,47.11,72.27c.21-1.17.73-2,.9-3.21a6.58,6.58,0,0,0-4.16,2.27c-1-.19-1.15.57-2.18.38a2.32,2.32,0,0,1-.36-2.46c0-.08.33-.12.36-.19s-.06-.29,0-.37A8.26,8.26,0,0,1,45.29,67c.41-.07,1,.21,1.27-.19.68.11.79.82,1.27,1.13.62.06,1.47-.14,1.82.19Zm-4.36,0h0c-.81.33-1.15.26-1.44.76s-1,.85-.55,1.32c.82-.41,1.51-1,2.36-1.51.32-.18,1.16,0,1.08-.76-.55-.47-1.1,0-1.45.19ZM102.19,70h0a2.35,2.35,0,0,0,1.81-1.7c-1-1.15-1.72.66-1.81,1.7Zm-49.1-.19h0c.25,1.08-.42,1.2-.55,1.89a2,2,0,0,0,2.54-2.08c-.5-.71-1.42-.11-2,.19Zm19.75,1.51h0c.63,0,.57-.66.9-.94-.71-.12-.8.42-.9.94Zm-27.18,3h0c-.41.81-1.36,1-2,1.51s-1.26,1.37-1.81,1.89a2.45,2.45,0,0,0-.72.94c0,.07-.32.12-.36.19s0,.28,0,.38-.32.11-.37.19A3.12,3.12,0,0,0,40,81c2,1.32,3.51-1.35,4.17-2.46.07-.11.29-.25.36-.37.16-.28.19-.83.36-1.13s.61-.49.73-.76c.28-.65.17-1.39.54-1.89Zm77.54,1.32h0a4.25,4.25,0,0,1-1.81,1.51c-.38.42-.51,1.1-1.26,1.14.07.64-.8.73-1.28,1.32,0,.07,0,.29,0,.38s-.31.12-.36.18a6.94,6.94,0,0,0-.9,1.89c0,.46,0,1.54.9,1.7.6.08.92-.62,1.09-.76s.4,0,.55-.18.33-.5.54-.76c.51-.64.83-.9.9-1.7.77,0,.63-.8.91-1.32.06-.1.28-.24.36-.38a13.33,13.33,0,0,0,1.09-3Z"/><path class="cls-1" d="M28.44,67.93c.52,1.47-.78,2.38-.54,4.15,3-.21,1.52-5.09,5.07-4.72a6.72,6.72,0,0,1,.55,1.52c.17.44.54.85.54,1.32a4.28,4.28,0,0,1-1.27,2.64,4.6,4.6,0,0,1-1.63.38,1.36,1.36,0,0,1-1.27-1.14c-.93.48-1.36,1.29-2.35,1-1.46-.5-.59-2.69-.36-4.15C24,67.75,25.63,73.3,23.55,74a10,10,0,0,1,0-4,10.86,10.86,0,0,1,.91-3h.36c.77-.24.49.63.91.75a8.57,8.57,0,0,1,2.71.19ZM31.53,70h0a2.19,2.19,0,0,0-.37,2.26A2,2,0,0,0,33,70.77c-.2-.55-.77-.71-1.44-.76Z"/><path class="cls-1" d="M131.36,72.65c.32,0,.38.23.72.19a1.25,1.25,0,0,1-.18.94c-.89.11-1.08-.73-.54-1.13Z"/><path class="cls-1" d="M135,72.65h.73v.76c-.63.15-.87-.11-.73-.76Z"/><path class="cls-1" d="M138.24,72.84c.38-.08.48.13.73.19.07.39-.13.5-.18.75-.57.09-.58-.4-.55-.94Z"/><path class="cls-1" d="M87,75.29c0,1.55-1.43,1-2.71.95s-3.17.46-3.44-.38c.11-.63,1.58-1,2.35-1.13,1.18-.23,3-.27,3.8.56Z"/><path class="cls-1" d="M106.1,14.27a8.78,8.78,0,0,1,1.44-.14c1,0,1.85.34,2.74.38a12.9,12.9,0,0,0,1.94-.09c.3,0,.58-.21.9-.24s.6.11.91.09c.86-.06,1.4-.64,2.2-.92.37-.13.74-.08,1.09-.18a13.82,13.82,0,0,0,1.54-.77,3.84,3.84,0,0,0,2-1.29c.15-.23.21-.6.38-.9s.64-.78.81-1.11a6,6,0,0,0,.48-2.87,6.88,6.88,0,0,0-.17-2.46,4.29,4.29,0,0,0-1.53-1.89c-.25-.13-.69-.18-1-.33S119,1,118.67.91s-1,0-1.52-.12-1.06-.4-1.53-.44-.68.07-1,.05c-1.25-.05-2.5-.37-3.72-.4a45,45,0,0,0-4.77.26V2c.94-.05,1.75,0,2.55-.06,2.21-.15,4.22-.41,5.38,1a20.11,20.11,0,0,1,1.46,2.9c.21.4.87.86.79,1.41-.13.84-1.79.89-3,1.09s-2.32.6-3.37.73a21.33,21.33,0,0,1-3.82.15v5ZM99.62,14h0v-.92a11.25,11.25,0,0,0,3.39.19,14.87,14.87,0,0,0-2.34-.72c-.34-.2-.69-.39-1-.56V8l.93.24a20.18,20.18,0,0,0,2.63.63,26.71,26.71,0,0,0,2.92.35v5a4.15,4.15,0,0,1-.86,0c-.36,0-.71-.21-1-.21s-.76.18-1.15.18-1.13-.12-1.7-.17-1.25,0-1.73-.1ZM106.1.26h0V2c-.32,0-.66.06-1,.11-.52.07-1.07.34-1.62.45a17,17,0,0,0-3.72,1l-.12.07V1.45A8.65,8.65,0,0,1,100.85,1a41.43,41.43,0,0,1,4.76-.66l.49,0ZM63.65,8.9h0c.77.3,1.45-.2,2.17-.29.29,0,.6,0,.91,0,.81-.07,1.6-.45,2.4-.55.28,0,.58.07.85,0s.63-.35,1-.43a8.32,8.32,0,0,1,1.22,0,24.59,24.59,0,0,0,2.66-.18c.92-.14,1.9-.66,2.76-.7.34,0,.76.2,1.16.2.24,0,.45-.11.66-.1s.57.18.86.22.66,0,1,0c1.1.16,2.71.36,4.14.44s2.85.28,4.08.37c.31,0,.65-.07,1,0s.91.25,1.41.38a3.38,3.38,0,0,1,1.36.63,16.13,16.13,0,0,1,1.43,2.21,7,7,0,0,0,1.63,1.25,6.48,6.48,0,0,0,1.68,1.12c.23.07.47,0,.74,0s.6.4.92.46h0v-.92a4.92,4.92,0,0,1-3.38-2.22h.12A13.06,13.06,0,0,1,99.62,12V8c-.49-.13-1-.27-1.59-.47s-2-.69-2.11-1.22c0-.24.41-.84.68-1s1-.41,1.67-.77c.46-.26.91-.65,1.35-.89V1.45l-.8.38c-.77.35-1.56.54-2.14.86a13.55,13.55,0,0,0-2.52,2.14c-.11,1.62-2,1.4-4,1.2-2.23-.22-4.27-.25-6.51-.46-1.89-.18-3.93-.44-5.84-.49-1.57,0-3.32.26-5,.24-1.44,0-2.88-.32-4-.27-.62,0-1.23.21-1.87.22-2.33.05-4.92.31-7.2.33-.68,0-1.37-.14-2-.09-.37,0-.77.26-1.2.31-1.63.19-3.51-.48-5.1-.08-.41.1-.59.43-1,.48A4.46,4.46,0,0,1,49.27,6a24.27,24.27,0,0,0-3.69,0c-1.26.06-2.57,0-3.7.11-.48.06-1.06.31-1.68.39-1,.15-2.58.2-3.12.72-.14.13-.2.59-.44,1-.45.8-1.12,1.08-.87,2.44a4,4,0,0,0,.73,1.49,7.27,7.27,0,0,0,1.12.7c.65.39,1.07.91,2,.79.51-.06,1-.62,1.66-.83,1.11-.38,2.46.06,3.64,0,.41,0,.55-.23.84-.23s.56.23.86.27a7.48,7.48,0,0,0,3.13-.52,37.11,37.11,0,0,1,4.89-.61c.73-.07,1.42-.41,2.1-.47a20.47,20.47,0,0,0,2.29-.24c.41-.08.78-.27,1.2-.37a19,19,0,0,0,2.41-.43c.56-.25.49-.83,1-1.37Z"/><path class="cls-2" d="M114,3c-1.16-1.43-3.17-1.17-5.38-1-1.08.08-2.16,0-3.57.17-.52.07-1.07.34-1.62.45a17,17,0,0,0-3.72,1c-.48.24-1,.67-1.47,1S97,5,96.6,5.28s-.71.81-.68,1c.06.53,1.48,1,2.11,1.22,1,.33,1.82.51,2.52.71a20.18,20.18,0,0,0,2.63.63,21.82,21.82,0,0,0,6.74.2c1-.13,2.23-.54,3.37-.73s2.86-.25,3-1.09c.08-.55-.58-1-.79-1.41A20.11,20.11,0,0,0,114,3Z"/><path class="cls-1" d="M19.42,43.61c.53-.21.69-.84,1-1.32a7.78,7.78,0,0,1,1.19-2.06,6.42,6.42,0,0,1,.6-1.45c.1-.2.3-.36.39-.55s.1-.36.17-.52.34-.6.5-.9a5.38,5.38,0,0,1,.49-.86c.14-.17.36-.26.47-.45s.16-.51.29-.76c.28-.51.48-1,.8-1.44.15-.24.27-.51.43-.73s.35-.32.49-.51c.33-.45.64-1.33,1.39-1.32a1,1,0,0,1,.83.69,4.28,4.28,0,0,1,0,.73,8,8,0,0,1,.17,1.38c0,.53-.21,1.13-.23,1.69s-.21,1.33-.24,2c0,.22.05.43,0,.65,0,.41-.18.92-.2,1.45a7.18,7.18,0,0,0,.1,1.48c.1.54.34,1,.39,1.55a7.91,7.91,0,0,1,0,1.62c0,.2,0,.39,0,.56s-.14.34-.16.55c-.05.44.06,1,0,1.45a19.32,19.32,0,0,0,0,3.31,1.65,1.65,0,0,1-1.19,1.27,2.61,2.61,0,0,1-2.49-1.24c-.05-.16,0-.42-.1-.66a7.11,7.11,0,0,1-.16-1.13,8.29,8.29,0,0,0-.13-.87c0-.24-.2-.49-.23-.72s0-.63,0-.93,0-.66,0-1,.16-.74.17-1.1-.21-1-.17-1.59a21,21,0,0,1,.8-3.14,2,2,0,0,0-.3-2,6.09,6.09,0,0,0-1.09,1.83c-.17.32-.28.67-.47,1s-.37.62-.53.93a22.35,22.35,0,0,1-.95,2c-.17.26-.42.41-.4.86a10.47,10.47,0,0,0-.8,1.73,3.93,3.93,0,0,1-.53,1.48c-.27.32-1.24.61-1.48,0-.11-.26,0-.49,0-.76a23.69,23.69,0,0,0-.83-3.14c-.14-.62.06-2.34-.27-2.55-.53-.35-1.21.29-1.42.66s-.33.48-.4.65,0,.5-.13.76-.18.26-.23.42,0,.33-.07.47-.24.46-.26.63a6.45,6.45,0,0,0,.07.69c0,.55,0,1.13,0,1.72,0,.2-.07.39-.06.59s.08.31.1.48,0,.52,0,.76a12.59,12.59,0,0,1,.26,1.86,4.35,4.35,0,0,1-.16,1A2.29,2.29,0,0,1,12.57,52,6.37,6.37,0,0,1,11,51.05c-.59-.39-.68-.58-.6-1.62,0-.36.13-.73.17-1.24.06-.77.2-1.61.3-2.34,0-.27,0-.54,0-.76.06-.45.35-1,.4-1.38s0-.89,0-1.35a8.54,8.54,0,0,1,.2-1.06c.07-.37.08-.75.13-1.11s.16-.72.2-1.07c.08-.63.06-1.21.17-1.79,0-.24.06-.47.1-.69s.14-.39.16-.58-.06-.43,0-.63.21-.39.26-.62,0-.31,0-.48c.08-.4.29-.86.43-1.31a12.29,12.29,0,0,1,.39-1.31c.1-.21.32-.45.5-.76s.66-1.48,1.16-1.52c.32,0,.83.57.89.86s-.06.7,0,1a4.29,4.29,0,0,0,.83,1.21c.28.4.67.75.89,1.1s.23.5.37.76a7.15,7.15,0,0,1,.79,2.55,7.91,7.91,0,0,1-.07,1c0,.57,0,1.12,0,1.68a8.41,8.41,0,0,0-.1,1.35A9,9,0,0,0,19,42.33a6.09,6.09,0,0,0,.46,1.28Z"/><path class="cls-1" d="M49.61,30.85a5.09,5.09,0,0,1,.78,0,3.09,3.09,0,0,1,2.15.94,2.62,2.62,0,0,1,.4,1.44,5,5,0,0,1-.47,1.07,6.48,6.48,0,0,1-1.52,2,2.59,2.59,0,0,1-1.34.56V35.84l.25-.1A4.21,4.21,0,0,0,51,34.81c.52-.63,1.08-1.92.33-2.58a2,2,0,0,0-1.59-.45h-.15v-.94Zm0,18.57h0a1.1,1.1,0,0,1,0,.18,1.62,1.62,0,0,1,0,.31v-.49Zm-4-19.85h0c-.42.1-1,1-1.09,1.48s.18,1.42.07,2.07c0,.23-.27.43-.26.62s.3.44.36.66c.11.45,0,.89.1,1.38.11.74.2,1.64.3,2.34,0,.31,0,.64.06,1,.12,1,.45,2,.56,3,0,.21,0,.41,0,.62s.11.34.13.52,0,.5,0,.72c.07.43.22.79.3,1.18s.11.81.2,1.3c.06.33.21.62.26,1s.11.67.17,1.08a11.57,11.57,0,0,0,.3,2.17,1.71,1.71,0,0,0,1.45.48,1.5,1.5,0,0,0,1-1.21v-.49c-.09-.46-.42-.84-.51-1.4-.05-.29,0-.58-.1-.9s-.16-.55-.23-.86c-.28-1.12-.25-2.44-.56-3.38-.09-.27-.39-.51-.4-.83s.17-.39.23-.65a4.37,4.37,0,0,0,.07-1.1c0-.16-.11-.31-.14-.49s0-.44,0-.65A2.61,2.61,0,0,1,47.78,38a1.74,1.74,0,0,1,1-1.1,2.86,2.86,0,0,1,.53,0,1.27,1.27,0,0,0,.28,0V35.84a1.59,1.59,0,0,1-.64.08,2.55,2.55,0,0,1-1.1-.8,2.49,2.49,0,0,1-.36-1.41,2.23,2.23,0,0,1,.23-.55c.18-.42.32-.87.7-1.07a3.14,3.14,0,0,1,1.17-.3v-.94a3.55,3.55,0,0,0-1.37.28c-.49.22-1.34,1-1.59.13,0-.17,0-.36,0-.55a2.72,2.72,0,0,0-.33-.66c-.2-.37-.29-.57-.7-.48Z"/><path class="cls-1" d="M36.36,45.78c-.2,0-.29.2-.43.31a4.55,4.55,0,0,0-.43.28c-.25.23-.35.62-.73.79a2.65,2.65,0,0,1-.67.13v-.94l0,0c.16-.06.29-.25.47-.34s.32-.1.43-.18c.36-.25.61-.67,1-.93,0-.37.33-.61.26-1s-.69-.69-1.19-.69c-.17,0-.38.08-.59.1a2.73,2.73,0,0,1-.41,0V41.75c.44,0,.9,0,1.37.06S36.63,42,37,41.5a1.82,1.82,0,0,0,.22-1.07c0-.16.12-.34.14-.51,0-.44.09-.89.13-1.24s-.06-.87,0-1.35.12-1.38.1-2.1c0-.41-.14-.88-.2-1.31a4.13,4.13,0,0,0-.63-1.86c-.13-.2-.32-.34-.47-.56s-.33-.8-.62-.86a2.07,2.07,0,0,0-1,.24c-.22.09-.42.19-.61.28v-.73a3.89,3.89,0,0,1,.61-.34c.37-.13.83-.21,1.19-.31a2.73,2.73,0,0,1,2,.55,5.92,5.92,0,0,1,1.12.83,4.59,4.59,0,0,1,1.33,2.76c.05.4-.07.82,0,1.24,0,.17.11.34.13.51s0,.37,0,.56c0,.44.23.85.23,1.2a3.34,3.34,0,0,1-.09.52c-.11,1,.06,2.14,0,3.14,0,.32-.18.63-.2,1,0,.17.05.37,0,.52s-.15.27-.2.48c-.09.38-.14.89-.2,1.35a13,13,0,0,0-.16,1.34c0,.22.15.45.16.69s-.11.6-.1.9.14.39.17.62a10.93,10.93,0,0,0,.1,1.24,4.64,4.64,0,0,0,.36.62c.27.49.79,1.36,1.66,1.11,1.13-.34,1.53-2.19,2.12-3.14a3.5,3.5,0,0,0-.07-.9c-.15-.31-.71-.3-.93-.51a.86.86,0,0,1,.3-1.35,1.25,1.25,0,0,1,1.23.55c0,.14,0,.37.09.55s.13.29.17.45A2.35,2.35,0,0,1,45,48.05c-.05.17-.07.38-.13.52s-.31.37-.46.65-.14.42-.23.59-.37.39-.47.59c-.24.46-.26.67-.72,1a3.16,3.16,0,0,1-2.52.6,7.72,7.72,0,0,1-1.16-.56,5.6,5.6,0,0,1-.76-.82,8.94,8.94,0,0,1-.72-.87,7.34,7.34,0,0,1-.9-3.24,1.17,1.17,0,0,0-.53-.72ZM34.1,47.29h0v-.94c-1,.36-2.19-.18-2.21-1.13a2.27,2.27,0,0,1,1-1.72,4.73,4.73,0,0,1,1.18-.18V41.75a4.47,4.47,0,0,0-2.8.72,3.77,3.77,0,0,0-1.09,2.75,1.87,1.87,0,0,0,.93,1.7c.12.07.29.06.46.13a4.59,4.59,0,0,0,1.19.52c.37,0,.55-.12.89-.21l.42-.07Zm0-16.13h0v-.73L34,30.5a3.9,3.9,0,0,0-1.16.8c-.14.12-.32.2-.43.31s-.23.44-.4.65-.37.29-.46.45a6.48,6.48,0,0,0-.5,1.34,3.3,3.3,0,0,0-.1.73c0,.2-.13.39-.13.55,0,.52.25,1,.89.79a6.8,6.8,0,0,1,.27-2.79,4.38,4.38,0,0,1,.33-.38c.11-.15.18-.36.26-.48a4.28,4.28,0,0,1,.63-.55,7.57,7.57,0,0,1,.63-.59l.32-.17Z"/><path class="cls-1" d="M64.48,34c-.35,0-.5.6-.72.9s-.38.31-.53.48,0,.27-.07.41A8.63,8.63,0,0,0,62.4,37c-.22.45-.38,1-.63,1.38s-.45.44-.6.72-.08.37-.16.55-.28.38-.4.59-.21.43-.33.62c-.25.43-.41.88-.63,1.31-.12.24-.35.44-.46.69s0,.4-.13.59-.25.31-.33.48c-.18.36-.26.8-.43,1.18s-.5.73-.66,1.1-.21.77-.34,1.13c0,.18-.14.37-.2.56a2.47,2.47,0,0,1-.13.58,1.45,1.45,0,0,1-1.25.52,1.93,1.93,0,0,1-1-.59c-.33-.48-.16-1.23-.19-2.1a33.14,33.14,0,0,1,0-3.86c0-.66.22-1.3.26-1.93,0-.2,0-.5,0-.73s.09-.35.1-.52c0-.44,0-.87,0-1.3a27.15,27.15,0,0,0,0-4.42,11.7,11.7,0,0,1-.26-1.69c.06-.56.82-1.86,1.59-1.59.59.22.48,1.55.69,2.42.08.31.29.7.36,1.1a5.16,5.16,0,0,1,0,1,6.46,6.46,0,0,1,.11.72c0,.38-.25.52-.31.76-.12.62.23,1.58.17,2.45,0,.24-.16.42-.17.65s.11.49.1.76,0,.54-.06.79-.12.52-.13.73c0,.63.2,1.31.43,1.34s.62-.53.86-.89A11.47,11.47,0,0,0,58.89,41c.18-.33.53-.64.67-.93s.06-.32.13-.45a8.07,8.07,0,0,1,.56-.83c.19-.28.29-.64.46-.93.08-.13.25-.24.33-.38.19-.31.29-.66.47-1a8.63,8.63,0,0,1,.56-.83c.41-.55.71-1.15,1.09-1.72.21-.33.56-.7.83-1a12.92,12.92,0,0,1,1.35-1.79c.13-.11.31-.19.44-.31s.33-.57.52-.73,1-.54,1.16,0c.1.28-.08.61-.1,1s.08.93,0,1.41-.11,1.39-.13,2.14a11,11,0,0,1,0,1.82c0,.18-.17.35-.2.52a5.91,5.91,0,0,0,.2,1.27c0,.19,0,.39,0,.56s.18.49.2.72c.07.82-.08,1.66,0,2.41,0,.35.2.64.2.93s-.08.43-.07.62a6.73,6.73,0,0,0,.27.87c.1.54.12,1.23.26,1.86s.36,1.19.53,1.79.65,1.2.63,1.69a2.22,2.22,0,0,1-.43,1,2,2,0,0,1-.63.76,2.07,2.07,0,0,1-1.26,0c-.3-.16-.5-1-.66-1.48s-.43-1.14-.52-1.59a11.12,11.12,0,0,0-.24-1.14c-.07-.2-.22-.44-.26-.62s0-.48-.07-.72c-.13-.86-.28-1.86-.43-2.76a13.4,13.4,0,0,1-.33-1.58c0-.29,0-.58,0-.87s-.18-.82-.19-1.2c0-.21.08-.43.09-.66,0-.48.05-1,.07-1.51s-.08-1-.07-1.42c0-.68.45-1.37.1-1.93Z"/><path class="cls-1" d="M123.21,29.84a1.11,1.11,0,0,1,.4,1.08c0,.24-.2.45-.24.69s.07.61,0,.89-.2.39-.27.62c-.12.46-.08,1.08-.16,1.66,0,.26-.17.51-.2.76a6.09,6.09,0,0,1-.3,1.89,7.51,7.51,0,0,1,.07,2.69c0,.18,0,.36,0,.52s-.19.5-.23.76c-.25,1.36-.26,2.85-.5,4.24,0,.2-.13.36-.17.55s0,.44,0,.65c-.08.45-.29.86-.4,1.28a6,6,0,0,1-.36,1.28,2.24,2.24,0,0,1-1-.07c-.2-.11-.36-.66-.53-1-.4-.74-.66-1.25-1.07-2a36.27,36.27,0,0,1-1.88-4.9c-.12-.34-.36-.84-.53-.89-.33-.11-.5.11-.66.24s-.4.27-.46.41a7.72,7.72,0,0,0-.14.86c-.06.25-.21.4-.23.59,0,.36.06.75,0,1.14,0,.67-.21,1.41-.26,2.1,0,.31,0,.63,0,.9s-.15.37-.17.55a9.61,9.61,0,0,0,.17,1.07c0,.37,0,.76,0,1.1,0,.5.26,1,.13,1.42a1.65,1.65,0,0,1-1.62,1,2,2,0,0,1-1.65-1.45,10,10,0,0,1,0-1.55c0-.54,0-1.05,0-1.45,0-.66.17-1.36.19-2.07,0-.16,0-.34,0-.51,0-.59.2-1.23.23-1.87,0-.44,0-.94,0-1.41a11.76,11.76,0,0,1-.07-1.41c0-.18.18-.35.24-.55s0-.32,0-.49.17-.32.2-.48c.11-.64.1-1.31.2-1.93a10.7,10.7,0,0,1,.4-1.55c0-.17.15-.3.19-.45a8.71,8.71,0,0,1,.23-1.21,3.07,3.07,0,0,1,.87-.79c.27-.2.69-.58,1-.55.58,0,.71.91.83,1.41,0,.18.18.32.23.52s0,.47.1.69.19.66.3,1c.3.88.52,2,.79,2.9a3,3,0,0,1,.37,1.31,6.5,6.5,0,0,1,.36.9c.15.44.28.76.43,1.27.07.24.25.44.33.69s0,.26.07.38.21.33.26.52,0,.28.07.41c.16.49.47,1,.66,1.42a2.73,2.73,0,0,0,.76,1.3c.51-.26.39-.8.43-1.3.07-.84.32-1.82.43-2.66.07-.53.06-1.08.13-1.62s.28-1.36.33-2c0-.3,0-.61,0-.9s.13-.46.14-.69-.07-.32-.07-.48a9.49,9.49,0,0,1,.13-1.42c0-.15.14-.32.17-.48.08-.39,0-.85.1-1.24,0-.18.14-.33.16-.48s-.05-.35,0-.52c.06-.58.38-1.13.4-1.66s-.31-1.7.66-1.52Z"/><path class="cls-1" d="M109.85,50.12a2.63,2.63,0,0,1-1.76,1.1,3.93,3.93,0,0,1-1.66-.51,2.4,2.4,0,0,1-.93-.86c-.12-.17-.31-.28-.39-.42s-.15-.44-.26-.69-.25-.4-.33-.58c-.29-.66-.52-1.59-1.16-1.59-.27,0-.43.29-.66.41a3,3,0,0,1-.73.31c-.18,0-.42-.06-.63,0a.89.89,0,0,0-.29.12V46.6a2.84,2.84,0,0,0,1.08-.2c.29-.15.76-.52.8-.76a4.81,4.81,0,0,0-.1-.79c-.21-.56-1-.69-1.78-.68V41.81a3.23,3.23,0,0,0,2.64-.21,4.82,4.82,0,0,0,1.22-2.82c.08-.46.07-.86.13-1.45.15-1.26.52-2.47.57-3.55a2.94,2.94,0,0,0-.7-2.52,2.57,2.57,0,0,0-1.29.24,4.82,4.82,0,0,0-.69.21c-.29.16-.45.59-.7.86s-.42.34-.53.49a1.21,1.21,0,0,0-.23,1.24,1.39,1.39,0,0,1-.42.57V32.55l.42-.43a5.71,5.71,0,0,1,1.39-1.27,5.24,5.24,0,0,1,1.66-.49,3.51,3.51,0,0,1,.63.14,4.46,4.46,0,0,1,1.25.35,4.12,4.12,0,0,1,1.66,2.27c.09.35.1.73.19,1.11a7.4,7.4,0,0,1,.37,1.17,6.2,6.2,0,0,1-.07.83c0,.27,0,.59,0,.86a13.93,13.93,0,0,0-.33,1.38c0,.53,0,1.1,0,1.69s-.33,1.11-.44,1.69c0,.2,0,.42,0,.62,0,.38-.24.73-.26,1.1,0,.63,0,1.22,0,1.86a7.72,7.72,0,0,0-.17,1.35c0,.68.28,1.64.4,2.38.08.49.06,1,.59,1a.94.94,0,0,0,.86-1.16c-.06-.59-.74-.8-.59-1.32s1.1.08,1.29.31a2.09,2.09,0,0,1,.36,1.31c0,.36-.33.3-.32.83Zm-8.8-2.74h0V46.6a2.73,2.73,0,0,1-1.5-.27,1.25,1.25,0,0,1-.16-1.62,1.67,1.67,0,0,1,1.25-.52l.41,0V41.81a7.51,7.51,0,0,0-.9-.13,3.38,3.38,0,0,0-2.71.92c-.14.13-.27.37-.43.55a2,2,0,0,0-.67,1.21,2.31,2.31,0,0,0,.3,1.32c.08.15.12.35.2.47s.26.26.36.39a3,3,0,0,0,2.29.85,6.62,6.62,0,0,0,1.39,0l.17,0Zm0-12.51h0V32.55a4.56,4.56,0,0,0-.84,1,2.31,2.31,0,0,0-.29.93c0,.26.53.55.92.48a.49.49,0,0,0,.21-.08Z"/><path class="cls-1" d="M132.24,46.54c.71-.14.59-1.09.7-1.76.19-1.22.46-2.49.76-3.73a4.48,4.48,0,0,1,.1-.55,11.79,11.79,0,0,0,.53-1.38c0-.11,0-.26,0-.38a8.42,8.42,0,0,1,.46-2c-.14-.48.14-.85.23-1.24s.21-1.09.3-1.7.25-1.13.33-1.61a2.37,2.37,0,0,0,0-.52,3.49,3.49,0,0,1-.09-.76.61.61,0,0,1,.46-.41c.33,0,.66.45.69.82s-.19.57-.26.93,0,.5,0,.73-.11.27-.14.41,0,.48,0,.73-.16.33-.2.52,0,.25,0,.37a3.89,3.89,0,0,1-.16.41c-.09.38-.1.78-.17,1.15,0,.18-.16.36-.2.55-.09.54-.08,1-.2,1.41a13,13,0,0,1-.52,1.69c-.07.16-.27.35-.3.52s.06.49,0,.82c0,.17-.13.34-.17.52s0,.36,0,.52-.16.27-.2.41a10.94,10.94,0,0,0-.13,1.21c0,.25-.15.5-.17.72a13.22,13.22,0,0,1-.09,1.56c-.11.49-.4,1-.47,1.41-.11.73,0,2-.63,2.1a1.16,1.16,0,0,1-.93-.55,6.91,6.91,0,0,1-.42-1.1c-.59-1.64-1-3.5-1.53-5.28-.11-.4-.42-1.2-.76-1.21s-.28.2-.4.56a5.18,5.18,0,0,0-.26.65c-.12.66,0,1.42-.17,2.1,0,.19-.16.36-.19.52-.08.38,0,.73-.1,1.07a12,12,0,0,0-.3,1.59,9.48,9.48,0,0,1,0,1.41,1.08,1.08,0,0,1-.73.76c-.87.13-1.09-.7-1.06-1.62,0-.75.27-1.77.33-2.38,0-.19,0-.39,0-.58,0-.41.18-.8.24-1.25a49.8,49.8,0,0,0-.11-5.21c0-.64.13-1.48.07-2.34a10,10,0,0,1,0-2.55,5.14,5.14,0,0,1,.66-1.07c.89-.51,1.73,1,2,1.66.12.34.18.74.33,1.1a7.46,7.46,0,0,1,.36,1.07c0,.21,0,.5,0,.69A5.93,5.93,0,0,0,130,39a27.87,27.87,0,0,0,.93,2.76,16.67,16.67,0,0,0,.43,2.38c.14.4.35.75.46,1.17a3.2,3.2,0,0,0,.4,1.21Z"/><path class="cls-1" d="M94.92,37.57c.15-.21-.13-.43,0-.59a11.87,11.87,0,0,1,.82-1.27c.17-.32.25-.61.43-.93s.18-.37.27-.52.34-.32.47-.52.1-.35.19-.51a6.36,6.36,0,0,1,.86-1.17c.35-.42.82-1.2,1.36-1.25a.61.61,0,0,1,.63.62c0,.54-.7,1-1.1,1.28a5.29,5.29,0,0,0-1.42,2c-.1.22-.24.37-.33.55s-.07.32-.13.45a4.94,4.94,0,0,1-.43.66c-.15.21-.27.48-.4.65s-.38.3-.53.49-.18.33-.29.48a4.42,4.42,0,0,0-.37.41c-.21.34-.34.83-.56,1.18-.12.18-.5.45-.63.65s-.12.38-.2.52-.33.31-.43.48-.15.4-.26.59a4.21,4.21,0,0,0-.3.55c-.18.36-.43.7-.59,1.07-.3.6-.46,1.29-.73,1.89-.15.31-.38.59-.54.9-.07.15-.08.34-.16.48s-.49.41-.63.62-.24.94-.5,1.31a7.74,7.74,0,0,1-.76.79c-.12.15-.21.31-.33.45s-.3.26-.39.38-.21.58-.53.73a1.17,1.17,0,0,1-1.49-.41c-.18-.4.06-1.12,0-1.66s-.52-1.34-.7-2.11c-.1-.44,0-1-.13-1.48,0-.18-.1-.36-.13-.55-.08-.54,0-1.11-.1-1.66,0-.24-.17-.48-.2-.72-.07-.65,0-1.4-.06-2A50.53,50.53,0,0,1,84.3,33a2.27,2.27,0,0,1,.23-.83,4,4,0,0,1,1-.89c.5-.33,1-.53,1.36,0a5.9,5.9,0,0,1,.36,1.28A14.17,14.17,0,0,1,87.44,34c0,.18,0,.26,0,.45s.2.41.23.62a5.82,5.82,0,0,1-.13,1.38c0,.26,0,.53,0,.79a4,4,0,0,0-.1.65,9.83,9.83,0,0,0,.26,1.38c.17,1,.17,2,.34,2.9.08.46.15.91.23,1.38a3.84,3.84,0,0,0,.33,1.17,1.6,1.6,0,0,0,1.06.45c.49-.09.51-1,.69-1.45a16.19,16.19,0,0,1,1.39-2.24c.16-.26.24-.56.4-.79.35-.53.8-1,1.19-1.52a12.57,12.57,0,0,1,1.13-1.59c.15-.12.37.15.49,0Z"/><path class="cls-1" d="M145.34,43c1.32.17,2.79-.2,4.3-.1.41,0,.81.14,1.23.17.78,0,1.48.13,2.18.21.22,0,.42.12.63.13s.57-.17.8,0a.54.54,0,0,1,.09.41c-.13.45-.76.18-1.32.07-.39-.08-.93-.14-1.32-.21s-.69,0-1,0a3.82,3.82,0,0,1-.63-.14,3.17,3.17,0,0,0-.53.08c-.32,0-.65-.2-1-.21a12.56,12.56,0,0,0-1.26.17c-.23,0-.46,0-.66,0s-.3.17-.5.21c-.36.07-.82,0-1.22,0a1.93,1.93,0,0,0-.76.38,8.89,8.89,0,0,0,.52,2.59,10.15,10.15,0,0,0,.34,1.27c.24.59.39,1,.63,1.63a1.07,1.07,0,0,1,.13.51.81.81,0,0,1-.66.59c-.6,0-1.13-.84-1.29-1.32-.3-.85-.47-1.74-.73-2.75-.11-.43-.24-.79-.36-1.38a7.4,7.4,0,0,0-.27-1.49,2.15,2.15,0,0,0-1.44-.6v-.81l.12,0c.25.09.59.4,1,.13.11-.27-.07-.48-.13-.72a9.11,9.11,0,0,1-.31-1.65c-.08-1,.06-2.11-.33-2.66a1.31,1.31,0,0,0-.31,0V32.38a4.25,4.25,0,0,1,.88,1.26,6.17,6.17,0,0,1,.59,1.65c0,.19,0,.33,0,.49s.22.42.26.62,0,.29,0,.41.16.46.2.69c.08.52.17,1.07.2,1.59s-.05.77,0,1.21a13.12,13.12,0,0,0,.36,1.34c.1.41.14,1.12.4,1.31a1.41,1.41,0,0,0,1.12,0Zm-4.05.29h0v-.81c-.48-.17-1-.37-1.11-1.07,0-.38.23-1,.27-1.62a5.56,5.56,0,0,1,0-1,4.63,4.63,0,0,1,.3-.55c.15-.36.22-.64.54-.66V32.38a1,1,0,0,0-.68-.22c-.51,0-.49.4-.73.9-.13.27-.28.36-.36.58s-.21.77-.33,1.17-.27.77-.4,1.14-.17.83-.29,1.24c-.22.73-.38,1.29-.6,2-.09.28-.21.52-.3.79a4.68,4.68,0,0,1-.13.59c-.1.22-.53.5-.56.62-.08.29.14.76.1,1.31a11.45,11.45,0,0,1-.4,1.76c-.19.74-.23,1.38-.46,2.11a7.09,7.09,0,0,0-.24,1,7,7,0,0,0-.26,2.07,2,2,0,0,0,1.22.89,1.56,1.56,0,0,0,1.49-.69c.35-.54.14-1.17.24-1.85,0-.16.13-.32.19-.56.15-.56.12-1.44.27-2.1.21-.94.38-1.52,1.12-1.8a2.49,2.49,0,0,1,1.11,0Z"/><path class="cls-1" d="M165.43,55.67v1.11c-.77-.08-1.55.1-2.32.06-.28,0-.55-.1-.83-.1s-.56.12-.82.14c-.57,0-1.13-.08-1.69,0-.18,0-.38.12-.56.14a6.29,6.29,0,0,1-.86,0,5.59,5.59,0,0,0-.8-.14c-.25,0-.5.21-.76.24a6.38,6.38,0,0,1-.69-.1c-.17,0-.34.1-.5.1s-.34-.13-.53-.13a4.3,4.3,0,0,0-.56.06c-.18,0-.41,0-.56,0s-.28.16-.43.17-.33-.08-.5-.06-.57.17-.86.17-.61-.15-.89-.14-.53.19-.8.21c-.53,0-1-.11-1.62-.1s-1.61.4-2.28.13c-.13,0-.17-.17-.3-.17s-.36.18-.53.21c-.44.05-.94,0-1.45.07-.81.08-1.59.11-2.55.13-.36,0-.72.12-1,.11s-.41-.15-.6-.14-.56.17-.89.21-.65.13-1,.13-.66-.11-1-.1c-.52,0-1,.16-1.56.17s-.81,0-1.22,0-.58-.15-.89-.14-.53.13-.79.14c-.53,0-1.07-.14-1.6-.11S130.4,58,130,58c-.84,0-1.67-.14-2.51-.14-.33,0-.66.07-1,.07-.92,0-1.86-.15-2.77-.14-.18,0-.36.09-.53.1-.68,0-1.38-.25-2.05-.2-.32,0-.6.17-.9.2a17,17,0,0,1-2-.2c-.27,0-.54.09-.83.07a9,9,0,0,0-1.06-.14,7.43,7.43,0,0,0-.79.17,10.88,10.88,0,0,1-1.69-.17,10.73,10.73,0,0,0-1.22.1,10.48,10.48,0,0,1-1.26,0c-.82,0-1.61.09-2.41.06-.27,0-.54-.08-.8-.1-1.12-.07-2.29.08-3.37.07-.22,0-.45-.08-.66-.07s-.51.12-.77.14a6.67,6.67,0,0,1-.89-.07c-1-.07-2.1.08-3.14,0-.55,0-1.09-.27-1.59-.27a9.75,9.75,0,0,1-1.06.07c-.32,0-.66-.27-1-.28s-.54.16-.8.17a4.25,4.25,0,0,1-.69-.1c-.79-.06-1.63,0-2.42-.1-.22,0-.43-.15-.66-.18s-.74.05-1.09,0-.5-.2-.76-.23a9.32,9.32,0,0,0-1,.09c-.61,0-1.28-.19-1.89-.2s-1.24.09-1.85.07c-.43,0-.85-.12-1.26-.1-.69,0-1.34.22-2,.2-.21,0-.44-.1-.66-.1-.58,0-1.25.3-1.92.38a5.3,5.3,0,0,1-.69,0c-.22,0-.44,0-.63,0s-.78.29-1.19.34c-.25,0-.52,0-.76,0s-.59.22-.9.27-.85.09-1.28.14c-.77.09-1.51,0-2.26.07-.3,0-.6.23-.89.28s-.49,0-.73,0c-.52.05-1.07.15-1.58.24s-1.07.1-1.59.14c-1.13.07-2.26-.25-3.38-.11-.44.06-.84.28-1.29.31-.27,0-.54,0-.83,0-.71,0-1.46.13-2.18.1s-1.37-.24-2.05-.27-1.4.17-2.12.17c-.2,0-.4-.07-.59-.08-.51,0-1,.22-1.53.25s-.85,0-1.28,0-.85.06-1.26.06-.64-.06-1-.06-.93,0-1.39.06-.89,0-1.33,0c-.22,0-.46.09-.69.1s-.39,0-.59,0-.61.09-.9.07-.39-.12-.6-.14-.68.08-1,.07-.6-.16-.89-.18-.47.11-.7.11c-.87,0-1.78-.1-2.64-.11-.22,0-.45-.07-.66-.06s-.4.09-.6.1a7,7,0,0,1-1,0c-.21,0-.41-.12-.63-.14s-.48.06-.72.05-.45-.14-.67-.14a5.63,5.63,0,0,0-.69.14c-.2,0-.44,0-.63,0S32,59,31.83,59a12.28,12.28,0,0,1-1.46-.07c-.27,0-.54.05-.79,0s-.71-.18-1-.17-.37.17-.56.21a5.28,5.28,0,0,1-1.13.07c-.19,0-.39-.1-.59-.11s-.37.1-.56.11c-1.23.09-2.48-.11-3.81-.14-.26,0-.55,0-.79,0a13.62,13.62,0,0,1-1.92.27c-.29,0-.57-.14-.9-.17a7.51,7.51,0,0,0-1.62.07c-.13,0-.28.13-.42.14s-.54-.06-.83,0-.6,0-.9,0-.35.14-.53.17a7.68,7.68,0,0,1-2.24,0,8.11,8.11,0,0,0-.9-.25c-.37,0-.7.24-1.06.28s-.53,0-.79,0-.78.14-1.16.17c-.84.06-1.68-.07-2.61,0-.18,0-.35.12-.53.14s-.59,0-.86,0a6,6,0,0,1-.7.18c-.37,0-.8-.12-1.19-.14-.23,0-.45,0-.66,0-.44,0-.85-.34-1.29-.27V58.5a26,26,0,0,1,2.65,0c2.56,0,5.09-.61,7.64-.48.83,0,1.63.11,2.48.07s1.74,0,2.58-.1a31.67,31.67,0,0,1,5.06-.07c.85,0,1.75-.09,2.62-.14,1.7-.1,3.43.15,5.22.07.88,0,1.75,0,2.62-.07s1.8,0,2.71,0,1.7,0,2.55,0a41.91,41.91,0,0,1,5.26.13c.42,0,.84,0,1.26.11s.87,0,1.29.1a16.91,16.91,0,0,0,2.45-.1c2.6,0,5.2-.05,7.81-.17a15.43,15.43,0,0,1,2.54-.07,27.65,27.65,0,0,0,5.23,0c2.19-.19,4.5.13,6.48-.24.44-.08.89,0,1.3-.1.84-.15,1.67-.18,2.47-.28,1.64-.2,3.25-.48,4.87-.65l5-.52c.86-.09,1.74-.05,2.61-.07a42.4,42.4,0,0,1,5.16.28c.84.08,1.66.2,2.49.27,3.4.31,6.92.44,10.38.45,2.57,0,5.27-.23,7.74-.1.84,0,1.69-.06,2.52,0,1.75,0,3.53-.09,5.29,0,5.2.26,10.49.09,15.82.17,3.49.06,7-.34,10.42-.34,1.72,0,3.46-.15,5.19-.17.87,0,1.78-.06,2.65-.1,4.22-.26,8.93-.34,13-.56Z"/><path class="cls-1" d="M39.32,69.42c0,1.1-1,.69-1.94.68s-2.25.33-2.45-.27c.08-.46,1.13-.7,1.68-.81a3.36,3.36,0,0,1,2.71.4Z"/></svg>