<?xml version="1.0" standalone="no"?>
<!DOCTYPE svg PUBLIC "-//W3C//DTD SVG 20010904//EN"
 "http://www.w3.org/TR/2001/REC-SVG-20010904/DTD/svg10.dtd">
<svg version="1.0" xmlns="http://www.w3.org/2000/svg"
 width="295.000000pt" height="179.000000pt" viewBox="0 0 295.000000 179.000000"
 preserveAspectRatio="xMidYMid meet">

<g transform="translate(0.000000,179.000000) scale(0.100000,-0.100000)"
fill="#000000" stroke="none">
<path d="M1577 1641 c-4 -17 -3 -21 5 -13 5 5 8 16 6 23 -3 8 -7 3 -11 -10z"/>
<path d="M1560 1549 c0 -5 5 -7 10 -4 6 3 10 8 10 11 0 2 -4 4 -10 4 -5 0 -10
-5 -10 -11z"/>
<path d="M1700 1485 c7 -8 19 -15 27 -15 13 0 13 3 3 15 -7 8 -19 15 -27 15
-13 0 -13 -3 -3 -15z"/>
<path d="M1780 1464 c0 -9 -8 -23 -17 -31 -17 -13 -16 -14 7 -9 14 3 33 6 44
6 15 0 16 3 7 14 -8 10 -9 16 -1 21 5 3 10 1 10 -5 0 -6 4 -9 9 -6 5 3 14 -1
21 -9 10 -12 10 -15 -1 -15 -8 -1 3 -7 24 -14 56 -21 103 -60 126 -110 20 -40
26 -45 64 -49 23 -3 57 -9 75 -12 47 -10 41 12 -10 35 -24 11 -50 20 -58 20
-8 1 -28 22 -45 48 -36 56 -111 115 -137 109 -10 -3 -16 -2 -13 3 5 8 -42 20
-81 20 -16 0 -24 -6 -24 -16z"/>
<path d="M1735 1336 c-19 -14 -17 -15 28 -16 76 0 140 -38 160 -93 2 -7 8 -9
12 -4 5 4 1 23 -8 42 -28 58 -149 103 -192 71z"/>
<path d="M1605 1279 c-3 -4 2 -6 10 -5 21 3 28 13 10 13 -9 0 -18 -4 -20 -8z"/>
<path d="M1756 1212 c-3 -4 25 -8 62 -8 90 1 153 -29 193 -92 34 -53 36 -72
11 -72 -18 0 -52 -29 -52 -43 0 -4 6 -7 14 -7 20 0 56 -48 56 -74 0 -11 -9
-36 -21 -55 -22 -36 -19 -52 6 -31 17 14 45 100 45 138 0 23 3 21 40 -20 40
-47 102 -79 195 -104 58 -16 115 -18 115 -5 0 13 -58 47 -93 55 l-29 7 26 20
c24 19 34 57 20 72 -4 4 -20 -5 -36 -18 -82 -69 -193 -17 -193 91 0 33 6 49
25 69 65 65 191 2 150 -75 -15 -28 -45 -22 -45 10 0 34 -48 42 -65 11 -33 -62
73 -109 125 -56 39 38 35 97 -9 141 -31 31 -40 34 -90 34 -48 0 -60 -4 -90
-31 -22 -19 -38 -43 -42 -65 -8 -42 -18 -43 -33 -5 -16 38 -68 87 -113 105
-39 17 -163 22 -172 8z"/>
<path d="M1684 1176 c-10 -8 -16 -17 -13 -20 3 -3 14 3 24 14 21 23 17 26 -11
6z"/>
<path d="M1912 1133 c-6 -20 -9 -41 -6 -47 3 -6 -1 -2 -10 8 -8 10 -13 22 -11
26 8 12 -20 19 -36 9 -12 -8 -12 -10 1 -18 8 -5 18 -7 22 -5 4 3 8 1 8 -5 0
-5 3 -17 7 -27 4 -11 3 -15 -4 -11 -6 4 -16 -6 -22 -24 -6 -17 -15 -28 -21
-24 -5 3 -10 -1 -10 -10 0 -9 5 -13 10 -10 6 3 10 -2 11 -12 0 -12 3 -9 9 8 4
14 24 49 44 78 35 52 45 84 28 95 -5 3 -14 -11 -20 -31z"/>
<path d="M935 1129 c-4 -6 -5 -12 -2 -15 2 -3 7 2 10 11 7 17 1 20 -8 4z"/>
<path d="M1767 1134 c-11 -11 -8 -26 3 -19 6 3 10 1 10 -6 0 -7 3 -10 6 -6 3
3 2 13 -3 22 -5 8 -12 12 -16 9z"/>
<path d="M716 1084 c-6 -15 -4 -15 11 -3 10 7 20 15 22 16 2 2 -3 3 -11 3 -9
0 -19 -7 -22 -16z"/>
<path d="M954 1016 c1 -8 5 -18 8 -22 4 -3 5 1 4 10 -1 8 -5 18 -8 22 -4 3 -5
-1 -4 -10z"/>
<path d="M700 1010 c8 -5 20 -10 25 -10 6 0 3 5 -5 10 -8 5 -19 10 -25 10 -5
0 -3 -5 5 -10z"/>
<path d="M1630 1002 c0 -15 39 -59 40 -44 0 6 -4 12 -10 12 -5 0 -10 6 -10 14
0 8 -4 18 -10 21 -5 3 -10 2 -10 -3z"/>
<path d="M610 980 c0 -5 7 -10 16 -10 8 0 12 5 9 10 -3 6 -10 10 -16 10 -5 0
-9 -4 -9 -10z"/>
<path d="M546 970 c-19 -6 -19 -7 -1 -13 20 -8 29 -4 24 11 -2 5 -13 6 -23 2z"/>
<path d="M1014 966 c-8 -21 5 -48 27 -54 10 -2 9 1 -3 11 -11 8 -14 17 -8 23
5 5 6 15 0 24 -7 12 -10 11 -16 -4z"/>
<path d="M1750 969 c0 -5 5 -7 10 -4 6 3 10 8 10 11 0 2 -4 4 -10 4 -5 0 -10
-5 -10 -11z"/>
<path d="M1890 961 c0 -12 5 -21 12 -21 9 0 9 -3 0 -12 -8 -8 -15 -8 -25 0 -8
7 -18 8 -22 4 -5 -4 -6 1 -2 10 5 14 -10 28 -29 28 -10 0 -2 -22 14 -39 28
-30 68 -35 92 -11 28 28 22 54 -13 58 -22 3 -27 -1 -27 -17z"/>
<path d="M2390 967 c0 -9 -3 -22 -6 -31 -4 -11 -1 -16 10 -16 9 0 74 -30 144
-66 140 -73 198 -87 249 -61 55 29 69 113 23 137 -40 22 -80 -13 -64 -54 5
-12 14 -16 30 -13 28 5 32 -14 7 -38 -12 -13 -28 -16 -63 -13 -46 5 -156 50
-195 82 -19 15 -18 15 25 16 25 0 56 7 68 16 27 19 31 50 5 39 -51 -21 -147
-16 -217 11 -10 4 -16 1 -16 -9z"/>
<path d="M320 962 c1 -17 21 -37 38 -38 11 -1 31 -4 44 -7 17 -5 30 -2 38 8 9
10 9 15 1 15 -6 0 -11 -4 -11 -10 0 -5 -5 -10 -11 -10 -5 0 -8 4 -4 9 3 5 1
12 -4 15 -5 4 -12 2 -16 -4 -3 -5 -11 -10 -16 -10 -6 0 -8 4 -5 9 3 5 -8 14
-24 20 -17 5 -30 7 -30 3z"/>
<path d="M790 960 c-8 -5 -11 -12 -7 -16 11 -12 -23 -43 -41 -37 -15 4 -15 3
-2 -6 13 -9 11 -11 -7 -11 -12 0 -25 -4 -28 -10 -7 -12 -58 -9 -66 3 -9 13
-62 -1 -54 -13 3 -5 0 -7 -8 -5 -7 3 -22 -3 -32 -15 -18 -20 -18 -20 11 -20
34 1 110 16 139 29 11 5 35 15 53 21 62 24 105 70 65 70 -15 0 -16 2 -3 10 8
5 11 10 5 10 -5 0 -17 -4 -25 -10z m30 -24 c0 -3 -4 -8 -10 -11 -5 -3 -10 -1
-10 4 0 6 5 11 10 11 6 0 10 -2 10 -4z"/>
<path d="M503 950 c9 -6 15 -16 12 -21 -4 -5 -11 -7 -16 -4 -5 4 -9 1 -9 -4 0
-6 -6 -11 -14 -11 -8 0 -16 -3 -18 -7 -6 -15 -159 -83 -200 -89 -24 -4 -49
-12 -57 -18 -11 -8 -13 -8 -8 0 4 7 0 14 -8 18 -26 9 -27 -13 -1 -25 49 -22
137 6 276 87 25 15 47 31 48 35 2 5 20 9 40 9 34 0 35 1 17 14 -11 7 -33 16
-50 20 -24 5 -26 4 -12 -4z"/>
<path d="M610 952 c0 -5 7 -9 15 -9 8 0 12 4 9 9 -3 4 -9 8 -15 8 -5 0 -9 -4
-9 -8z"/>
<path d="M890 942 c0 -47 41 -134 56 -119 4 4 2 13 -4 20 -21 25 -42 95 -29
100 6 2 4 6 -6 10 -12 4 -17 1 -17 -11z"/>
<path d="M1586 914 c-18 -26 -18 -26 3 -15 11 7 21 18 21 26 0 20 -2 19 -24
-11z"/>
<path d="M1250 896 c0 -2 7 -9 15 -16 9 -7 15 -8 15 -2 0 5 -7 12 -15 16 -8 3
-15 4 -15 2z"/>
<path d="M1081 870 c-54 -12 -144 -63 -119 -68 10 -2 29 5 43 16 37 29 117 45
183 38 31 -4 67 -8 79 -9 12 -1 20 -4 17 -6 -9 -9 102 -71 126 -70 l25 0 -24
10 c-13 5 -45 25 -70 43 -63 46 -168 64 -260 46z"/>
<path d="M1713 865 c-24 -7 -43 -11 -43 -8 0 2 -13 -5 -29 -16 -16 -12 -49
-32 -73 -46 -25 -15 -36 -25 -25 -25 10 0 52 19 93 41 97 53 170 62 259 30 97
-35 104 -36 77 -12 -52 46 -175 63 -259 36z"/>
<path d="M1466 835 c4 -8 10 -12 15 -9 11 6 2 24 -11 24 -5 0 -7 -7 -4 -15z"/>
<path d="M56 728 c3 -4 3 -8 0 -8 -2 0 -12 -3 -22 -7 -12 -4 -15 -3 -10 5 4 7
2 12 -3 12 -6 0 -11 -11 -11 -25 0 -30 4 -31 31 -4 19 19 22 19 38 5 15 -14
18 -13 28 3 16 25 4 35 -14 13 -11 -13 -14 -14 -10 -2 3 10 -2 16 -13 16 -10
0 -16 -4 -14 -8z"/>
<path d="M217 732 c-41 -3 -47 -5 -36 -18 10 -12 9 -13 -5 -8 -9 3 -16 9 -16
13 0 4 -7 8 -15 8 -8 0 -12 -4 -9 -9 3 -4 -1 -8 -9 -8 -8 0 -18 -7 -21 -16 -3
-8 -10 -12 -16 -9 -5 3 -10 -1 -10 -9 0 -23 28 -20 35 4 7 21 25 28 25 10 0
-5 -4 -10 -10 -10 -5 0 -10 -4 -10 -10 0 -6 491 -10 1415 -10 l1415 0 0 41 0
42 -702 -6 c-536 -4 -703 -8 -706 -17 -3 -9 -6 -9 -13 1 -6 11 -128 13 -636
14 -345 0 -650 -1 -676 -3z m23 -16 c0 -3 -4 -8 -10 -11 -5 -3 -10 -1 -10 4 0
6 5 11 10 11 6 0 10 -2 10 -4z m1404 -12 c3 -8 2 -12 -4 -9 -6 3 -10 10 -10
16 0 14 7 11 14 -7z m125 7 c8 -5 9 -11 3 -15 -5 -3 -15 1 -22 9 -14 16 -3 20
19 6z m-1599 -16 c0 -12 -19 -12 -23 0 -4 9 -1 12 9 8 7 -3 14 -7 14 -8z"/>
<path d="M27 676 c-14 -11 -12 -13 13 -13 31 0 40 11 17 20 -7 3 -20 -1 -30
-7z"/>
<path d="M1852 600 c-72 -11 -77 -34 -18 -89 19 -18 29 -22 37 -14 9 9 7 16
-5 28 -22 22 -20 32 7 39 36 9 57 7 57 -7 0 -7 -22 -64 -48 -127 -103 -244
-125 -325 -102 -384 22 -58 93 -38 106 30 8 45 7 50 -16 46 -17 -3 -20 3 -20
36 0 68 75 154 210 239 34 21 88 55 121 75 33 21 63 48 68 60 10 28 -2 54 -29
63 -28 9 -316 13 -368 5z m8 -24 c0 -2 -7 -7 -16 -10 -8 -3 -12 -2 -9 4 6 10
25 14 25 6z m318 -32 c2 -16 -10 -32 -40 -57 -55 -44 -248 -160 -255 -153 -7
6 18 69 60 154 27 55 35 63 57 60 20 -2 28 -12 38 -45 l13 -41 35 20 c26 15
34 27 34 48 0 43 52 55 58 14z m-323 -314 c3 -5 1 -10 -4 -10 -6 0 -11 5 -11
10 0 6 2 10 4 10 3 0 8 -4 11 -10z m-28 -42 c-3 -8 -6 -5 -6 6 -1 11 2 17 5
13 3 -3 4 -12 1 -19z"/>
<path d="M2410 602 c-46 -2 -90 -8 -98 -14 -7 -6 -12 -25 -10 -42 3 -27 16
-40 91 -91 94 -63 117 -89 98 -108 -17 -17 -13 -35 9 -47 29 -15 64 22 55 58
-10 39 -40 67 -111 103 -65 32 -90 67 -66 91 22 22 55 -17 40 -47 -3 -5 71
-45 84 -45 4 0 8 20 8 44 0 25 5 48 11 52 7 4 41 6 77 5 78 -2 122 -25 146
-75 22 -47 20 -97 -9 -232 -33 -153 -33 -178 5 -216 26 -25 35 -29 63 -22 17
4 48 8 67 8 30 2 35 6 41 34 4 20 1 38 -8 52 -12 17 -22 20 -69 16 -40 -3 -58
-1 -70 11 -21 21 -13 49 40 130 69 108 81 166 51 241 -11 27 -29 46 -58 63
-37 21 -58 25 -172 29 -71 3 -168 4 -215 2z m432 -141 c-8 -23 -32 -57 -32
-46 0 6 -5 3 -10 -5 -5 -8 -10 -10 -10 -5 0 6 9 18 20 28 11 9 17 23 14 30 -3
8 2 14 10 14 9 0 12 -6 8 -16z m-37 0 c3 -5 2 -12 -3 -15 -5 -3 -9 1 -9 9 0
17 3 19 12 6z m49 -52 c-3 -39 -11 -48 -12 -12 0 25 5 43 12 43 1 0 1 -14 0
-31z m-26 -40 c-3 -8 -7 -3 -11 10 -4 17 -3 21 5 13 5 -5 8 -16 6 -23z m-23
-29 c-3 -5 -10 -10 -16 -10 -5 0 -9 5 -9 10 0 6 7 10 16 10 8 0 12 -4 9 -10z
m0 -48 c-2 -3 -12 -1 -22 2 -15 6 -15 9 -3 16 13 8 35 -8 25 -18z m-25 -178
c14 -8 17 -13 7 -10 -10 3 -25 6 -33 6 -8 0 -14 5 -14 10 0 14 10 12 40 -6z
m66 -5 c3 -6 15 -9 25 -6 11 3 17 1 14 -3 -3 -5 1 -11 7 -13 8 -3 6 -6 -4 -6
-10 -1 -18 -6 -18 -12 0 -5 5 -7 12 -3 7 4 8 3 4 -4 -4 -7 -17 -11 -29 -10
-12 1 -37 -2 -56 -6 -29 -7 -33 -6 -28 8 6 14 -3 21 -25 17 -4 0 -5 6 -2 13 4
10 16 13 40 9 29 -5 33 -3 28 11 -7 18 20 23 32 5z"/>
<path d="M2798 63 c7 -3 16 -2 19 1 4 3 -2 6 -13 5 -11 0 -14 -3 -6 -6z"/>
<path d="M53 594 c-22 -9 -15 -23 39 -80 46 -48 51 -58 40 -74 -17 -28 -15
-40 7 -40 31 0 33 29 6 88 -14 31 -22 59 -18 63 12 11 112 14 123 3 5 -5 10
-50 11 -99 2 -75 4 -85 13 -62 6 18 15 26 24 22 12 -4 13 -3 2 10 -10 12 -10
15 1 15 11 0 11 2 -1 10 -11 8 -9 9 10 5 24 -6 25 -4 27 46 2 29 5 54 8 57 2
2 33 5 68 6 52 1 64 -2 62 -14 -1 -8 5 -21 14 -28 9 -8 11 -11 6 -8 -6 2 -15
2 -20 -2 -16 -11 -36 -52 -26 -52 14 0 32 26 23 35 -4 5 -2 5 4 2 15 -9 38 19
28 34 -5 9 -2 10 10 6 11 -4 19 -1 23 11 4 9 11 20 17 24 6 4 7 11 2 15 -8 9
-483 15 -503 7z m467 -18 c0 -2 -6 -9 -13 -15 -10 -8 -14 -7 -14 4 0 8 6 15
14 15 7 0 13 -2 13 -4z m-210 -90 c-16 -16 -39 -16 -33 1 5 12 7 12 14 1 6 -9
9 -6 9 12 0 20 2 22 10 10 6 -9 6 -18 0 -24z"/>
<path d="M610 590 c-20 -13 -6 -35 49 -78 48 -37 76 -33 35 5 -18 16 -23 28
-17 34 13 13 85 7 90 -7 2 -6 -8 -27 -21 -46 -18 -27 -21 -38 -11 -41 16 -7
97 100 93 122 -3 13 -22 16 -103 19 -55 1 -107 -2 -115 -8z"/>
<path d="M900 580 c0 -9 11 -23 25 -30 14 -7 25 -18 26 -24 5 -69 5 -196 0
-196 -4 0 -20 14 -37 31 -54 58 -127 111 -134 98 -5 -7 15 -29 53 -58 67 -51
127 -130 127 -167 0 -30 10 -30 33 -3 18 20 18 21 -5 14 -13 -4 -20 -4 -16 0
4 5 4 13 -1 19 -6 7 -1 11 17 12 23 1 27 -4 29 -28 2 -20 -2 -27 -10 -23 -7 4
-3 -1 7 -9 15 -12 16 -16 5 -16 -9 0 -10 -3 -3 -8 7 -4 14 -16 17 -27 3 -12 5
-5 5 15 -1 19 0 106 1 193 l1 158 30 17 c17 9 29 24 27 32 -2 12 -21 15 -100
16 -84 1 -97 -1 -97 -16z m104 -282 c-7 -11 -34 -10 -34 1 0 6 9 9 19 8 11 0
17 -5 15 -9z"/>
<path d="M1148 589 c-11 -6 -18 -22 -18 -39 0 -36 17 -48 136 -96 121 -49 177
-78 219 -115 29 -26 38 -29 48 -19 10 10 9 12 -5 7 -9 -3 -23 2 -32 12 -16 17
-15 19 9 19 14 0 28 -5 31 -9 3 -5 10 -6 16 -3 8 5 9 1 5 -10 -5 -14 -3 -17 8
-12 8 3 15 0 15 -6 0 -6 3 -8 7 -5 10 10 -25 44 -53 51 -13 4 -24 11 -24 16 0
5 -7 6 -17 3 -10 -4 -14 -2 -10 5 7 10 -79 47 -183 81 -56 18 -100 49 -100 70
0 11 4 22 9 25 17 11 41 -6 41 -28 0 -17 11 -26 45 -38 l45 -17 0 34 c0 19 5
37 12 41 19 12 158 15 179 3 26 -13 24 -45 -6 -98 -20 -35 -23 -46 -13 -53 9
-6 25 5 51 34 72 80 82 124 31 146 -32 15 -421 16 -446 1z"/>
<path d="M444 442 c3 -5 0 -12 -6 -15 -7 -2 -10 -7 -7 -11 3 -4 12 0 18 8 9
11 9 16 0 22 -7 4 -9 3 -5 -4z"/>
<path d="M715 440 c3 -5 -1 -10 -9 -10 -19 0 -29 -17 -19 -32 4 -7 6 -22 5
-33 -1 -11 9 0 22 25 24 44 25 60 5 60 -6 0 -7 -4 -4 -10z"/>
<path d="M323 425 c0 -8 4 -15 9 -15 4 0 8 4 8 9 0 6 -4 12 -8 15 -5 3 -9 -1
-9 -9z"/>
<path d="M1250 252 l0 -179 -25 -11 c-14 -6 -25 -20 -25 -30 0 -16 10 -18 97
-17 107 0 122 10 73 45 l-30 21 0 160 c0 177 6 160 -67 183 l-23 7 0 -179z
m60 -32 c-4 -3 -6 -13 -4 -22 1 -10 -3 -21 -8 -25 -7 -3 -8 -1 -4 5 4 7 1 12
-6 12 -9 0 -9 3 2 10 8 5 10 10 3 10 -6 0 -9 8 -6 19 4 16 8 17 18 8 7 -7 9
-14 5 -17z"/>
<path d="M2115 404 c-11 -9 -25 -18 -32 -22 -9 -5 -6 -37 12 -127 32 -156 32
-178 0 -195 -14 -7 -25 -21 -25 -31 0 -15 12 -17 99 -16 79 0 101 3 106 15 5
13 -20 41 -37 42 -16 0 -37 62 -63 190 -33 161 -33 163 -60 144z"/>
<path d="M2430 399 c-1 -2 -2 -75 -3 -161 -2 -144 -4 -159 -22 -172 -11 -9
-23 -16 -27 -16 -5 0 -8 -8 -8 -18 0 -17 9 -19 97 -18 78 1 98 5 101 16 1 8
-11 23 -28 32 l-30 17 0 94 c0 90 -1 94 -25 105 -28 13 -43 56 -26 76 8 10 6
17 -9 31 -11 10 -20 16 -20 14z"/>
<path d="M1606 225 c-3 -9 -2 -13 4 -10 6 3 10 3 11 -2 0 -4 2 -20 4 -35 3
-20 -2 -29 -16 -33 -28 -9 -43 3 -27 23 10 12 10 14 1 8 -7 -4 -13 -3 -13 3 0
5 5 11 12 13 7 3 5 7 -6 11 -9 4 -15 3 -11 -2 3 -5 -1 -12 -7 -15 -8 -4 -9 -8
-3 -11 6 -3 8 -27 7 -54 -3 -39 -8 -51 -28 -61 -13 -8 -24 -21 -24 -30 0 -15
13 -17 97 -16 78 1 98 5 101 16 1 8 -11 22 -27 31 -28 16 -39 50 -41 123 -1
10 -7 28 -14 38 -12 17 -14 17 -20 3z m2 -115 c12 -20 12 -21 -13 -4 -28 18
-31 24 -12 24 7 0 18 -9 25 -20z"/>
<path d="M702 205 c1 -11 -4 -31 -11 -45 l-12 -25 20 25 21 25 0 -32 c0 -17 3
-34 8 -36 14 -9 6 48 -11 78 -13 22 -17 25 -15 10z"/>
<path d="M635 200 c-3 -5 -1 -10 4 -10 6 0 11 5 11 10 0 6 -2 10 -4 10 -3 0
-8 -4 -11 -10z"/>
<path d="M960 182 c0 -5 7 -9 15 -9 8 0 12 4 9 9 -3 4 -9 8 -15 8 -5 0 -9 -4
-9 -8z"/>
<path d="M636 165 c-3 -8 -1 -15 4 -15 5 0 7 -7 4 -15 -4 -8 -1 -15 4 -15 16
0 24 18 11 25 -5 4 -8 13 -5 21 3 8 1 14 -3 14 -5 0 -11 -7 -15 -15z"/>
<path d="M740 139 c0 -5 5 -7 10 -4 6 3 10 8 10 11 0 2 -4 4 -10 4 -5 0 -10
-5 -10 -11z"/>
<path d="M765 120 c-3 -5 -1 -10 4 -10 6 0 11 5 11 10 0 6 -2 10 -4 10 -3 0
-8 -4 -11 -10z"/>
<path d="M914 114 c-18 -14 -18 -15 4 -4 12 6 22 13 22 15 0 8 -5 6 -26 -11z"/>
<path d="M663 113 c-21 -7 16 -52 60 -73 39 -19 63 -18 51 2 -4 6 -10 5 -16
-3 -7 -10 -8 -6 -5 14 2 15 0 27 -4 27 -5 0 -9 -7 -9 -15 0 -8 -5 -15 -11 -15
-6 0 -9 7 -5 15 5 14 -11 21 -37 16 -5 -1 -6 2 -3 7 7 12 -7 30 -21 25z"/>
<path d="M796 104 c-6 -16 2 -18 22 -5 11 7 11 9 -1 14 -9 3 -18 -1 -21 -9z"/>
<path d="M860 99 c0 -5 5 -7 10 -4 6 3 10 8 10 11 0 2 -4 4 -10 4 -5 0 -10 -5
-10 -11z"/>
<path d="M1066 51 c-4 -7 -5 -15 -2 -18 9 -9 19 4 14 18 -4 11 -6 11 -12 0z"/>
<path d="M367 44 c7 -3 9 -12 6 -20 -4 -10 0 -12 11 -8 24 9 19 34 -6 33 -13
0 -18 -3 -11 -5z"/>
<path d="M1086 34 c-4 -9 -4 -19 -1 -22 2 -3 7 3 11 12 4 9 4 19 1 22 -2 3 -7
-3 -11 -12z"/>
</g>
</svg>
